<svg viewBox="0 0 1024 476" version="1.1" xmlns="http://www.w3.org/2000/svg">
    <g id="Welcome" stroke="none" stroke-width="1" fill="none" fill-rule="evenodd">
        <g id="Desktop" transform="translate(0.000000, -231.000000)" fill-rule="nonzero">
            <g id="Main-background" transform="translate(0.000000, 231.000000)">
                <g id="Landscape" transform="translate(0.000000, 105.000000)">
                    <path d="M1023.41429,81.495037 C590.176848,-132.247825 364.6613,147.701982 0,105.57029 L0,267.552741 L1023.41429,254.872541 L1023.41429,81.495037 Z" id="Shape" fill-opacity="0.601505888" fill="#2EBBFF"></path>
                    <path d="M1023.41429,174.202751 C1023.41429,174.202751 893.434507,171.097297 744.19176,210.921016 C645.982121,237.127134 543.398023,293.031526 450.00755,341.400122 C586.059507,305.87462 690.823305,284.562417 764.298945,277.463513 C837.774585,270.364609 924.146366,273.210105 1023.41429,286 L1023.41429,174.202751 Z" id="Shape" fill="#BCEBFE"></path>
                    <path d="M0,154 L0,284 C69.5034423,338.019704 153.91272,366.899707 253.227834,370.640009 C323.653912,373.292322 426.88158,345.213209 566.520606,312.686413 C604.707567,303.791339 668.412766,291.869609 757.636203,276.921223 C477.234176,196.588552 224.688775,155.614811 0,154 Z" id="Shape" fill="#CEEBFF"></path>
                </g>
                <g id="Snowman" transform="translate(245.000000, 140.000000)">
                    <g id="Group" transform="translate(0.000000, 105.000000)" fill="#6D4D42">
                        <path d="M174.327803,13.9062258 L170.191791,13.1589355 L175.010218,9.56296774 C176.444254,8.49235484 176.739533,6.46225806 175.668306,5.02806452 C174.597498,3.59387097 172.56745,3.29948387 171.132995,4.36967742 L165.867036,8.29987097 L166.109886,3.54522581 C166.200903,1.75793548 164.826007,0.235258065 163.03923,0.14383871 C161.246161,0.0511612903 159.729078,1.42748387 159.637223,3.21435484 L159.120064,13.3354839 L132.726092,33.0342581 C131.292057,34.104871 130.996777,36.1349677 132.068005,37.5691613 C132.704282,38.4217097 133.67946,38.8712581 134.66764,38.8712581 C135.342085,38.8712581 136.021983,38.6615806 136.603315,38.2275484 L163.088723,18.4604194 L173.175626,20.2829355 C173.370661,20.3181613 173.564438,20.3353548 173.756118,20.3353548 C175.293334,20.3353548 176.658583,19.2370645 176.941699,17.6711935 C177.258789,15.9099032 176.088995,14.2249355 174.327803,13.9062258 Z" id="Shape"></path>
                        <path d="M44.2734882,33.0346774 L17.8795166,13.3359032 L17.3623578,3.21477419 C17.2709218,1.42748387 15.7395782,0.0507419355 13.9603507,0.144677419 C12.1727346,0.235677419 10.7982583,1.75877419 10.8892749,3.54606452 L11.1321256,8.30070968 L5.86616588,4.37051613 C4.43213033,3.29990323 2.40082464,3.59512903 1.33085545,5.02890323 C0.259627962,6.46267742 0.554907583,8.49319355 1.98894313,9.56380645 L6.80736967,13.1597742 L2.67135782,13.9070645 C0.910165877,14.2253548 -0.259627962,15.9107419 0.0583009479,17.6716129 C0.341417062,19.2374839 1.70582701,20.3357742 3.24346209,20.3357742 C3.43430332,20.3357742 3.62891943,20.3185806 3.82395498,20.2833548 L13.9108578,18.4608387 L40.3962654,38.2279677 C40.978436,38.662 41.6579147,38.8716774 42.3319408,38.8716774 C43.3197014,38.8716774 44.2952986,38.4217097 44.9315758,37.5695806 C46.0023839,36.1349677 45.7075237,34.1052903 44.2734882,33.0346774 Z" id="Shape"></path>
                    </g>
                    <g id="Group" transform="translate(24.000000, 124.000000)" fill="#61443B">
                        <path d="M125.977714,0.377521739 L108.662396,13.1244565 C107.230412,14.1789565 106.935555,16.1785 108.00525,17.5911087 C108.640617,18.4308261 109.614399,18.8736087 110.601166,18.8736087 C111.274646,18.8736087 111.953571,18.667087 112.534071,18.239587 L128.840844,6.23571739 C127.978052,4.23204348 127.02186,2.27793478 125.977714,0.377521739 Z" id="Shape"></path>
                        <path d="M20.3367662,13.1244565 L3.02144805,0.377521739 C1.97772078,2.27834783 1.02111039,4.23204348 0.158737013,6.2348913 L16.4659286,18.2391739 C17.0472662,18.6666739 17.7257727,18.8731957 18.3988344,18.8731957 C19.3851818,18.8731957 20.3593831,18.43 20.99475,17.5906957 C22.0631883,16.178087 21.76875,14.1789565 20.3367662,13.1244565 Z" id="Shape"></path>
                    </g>
                    <circle id="Oval" fill="#EEEEEC" cx="88" cy="158" r="57"></circle>
                    <path d="M52.6670894,158 C52.6670894,130.213423 72.6091402,107.075207 99,102.026725 C95.4918749,101.355663 91.8714393,101 88.1664553,101 C56.5941704,101 31,126.520066 31,158 C31,189.479934 56.5941704,215 88.1664553,215 C91.8710186,215 95.4914542,214.644337 99,213.973275 C72.6091402,208.925212 52.6670894,185.786577 52.6670894,158 Z" id="Shape" fill="#D4D3D3"></path>
                    <path d="M36.1034449,117.171419 L51.3603717,102 L68,118.740289 L52.7430732,133.911708 C51.2778604,135.368699 48.909277,135.361892 47.4525705,133.896394 L36.0877082,122.463379 C34.631427,120.997455 34.6382321,118.628409 36.1034449,117.171419 Z" id="Shape" fill="#117D66"></path>
                    <path d="M122.118316,83 C134.880217,94.091698 137.408317,129 88.4999074,129 C39.5914981,129 42.1200164,94.091698 54.8814985,83 L122.118316,83 Z" id="Shape" fill="#44C2A7"></path>
                    <path d="M67.8326868,83 L54.8865953,83 C42.1168606,94.091698 39.5867071,129 88.5267448,129 C90.7942482,129 92.9494866,128.924369 95,128.78025 C52.7904218,125.816357 55.6544382,93.5778277 67.8326868,83 Z" id="Shape" fill="#1F967E"></path>
                    <circle id="Oval" fill="#EEEEEC" cx="88.5" cy="71.5" r="35.5"></circle>
                    <path d="M61.7080925,71.5004209 C61.7080925,53.3633938 75.3686908,38.4135 93,36.2731708 C91.5718965,36.0997558 90.1209704,36 88.6459537,36 C68.9589193,36 53,51.8939958 53,71.5 C53,91.1060042 68.9593419,107 88.6459537,107 C90.1209704,107 91.5718965,106.900244 93,106.726829 C75.3686908,104.587342 61.7080925,89.637448 61.7080925,71.5004209 Z" id="Shape" fill="#D4D3D3"></path>
                    <g id="Group" transform="translate(81.000000, 64.000000)" fill="#E95552">
                        <ellipse id="Oval" cx="7.49958333" cy="80.4127238" rx="6.49875" ry="6.53588571"></ellipse>
                        <ellipse id="Oval" cx="7.49958333" cy="102.839314" rx="6.49875" ry="6.53588571"></ellipse>
                        <ellipse id="Oval" cx="7.49958333" cy="125.265905" rx="6.49875" ry="6.53588571"></ellipse>
                        <ellipse id="Oval" cx="7.49958333" cy="7.612" rx="7.49458333" ry="7.53740952"></ellipse>
                    </g>
                    <g id="Group" transform="translate(68.000000, 59.000000)" fill="#424342">
                        <path d="M20.99958,36.6265977 C15.7017,36.6265977 10.90908,34.2585977 8.17824,30.2919425 C7.15344,28.8030115 7.51422,26.7548276 8.98422,25.7175517 C10.45506,24.679 12.47736,25.0455977 13.50174,26.5336782 C14.99694,28.706046 17.87016,30.0550575 20.99916,30.0550575 C24.12732,30.0550575 27.00054,28.706046 28.49616,26.5345287 C29.52096,25.0468736 31.5441,24.6807011 33.01368,25.7192529 C34.48368,26.7573793 34.84446,28.8055632 33.81882,30.294069 C31.0884,34.259023 26.2962,36.6265977 20.99958,36.6265977 Z" id="Shape"></path>
                        <ellipse id="Oval" cx="4.85226" cy="4.64881609" rx="4.44906" ry="4.50506897"></ellipse>
                        <ellipse id="Oval" cx="37.1469" cy="4.64881609" rx="4.44906" ry="4.50506897"></ellipse>
                    </g>
                    <polygon id="Shape" fill="#E95552" points="87.5 14 61 22.0359568 63.1816529 36.9196843 88.3972184 44 111.818766 36.9196843 114 22.0359568"></polygon>
                    <polygon id="Shape" fill="#D34D49" points="95 41.1676537 76.2978819 36.1189066 73.5333167 18 61 21.6539699 63.1952155 36.0504462 63.2053825 36.1189066 80.1990282 40.7061647 88.6952155 43"></polygon>
                    <g id="Group" transform="translate(44.000000, 0.000000)" fill="#424342">
                        <rect id="Rectangle-path" x="0.18765566" y="36.5952397" width="88.6242689" height="14.0667273"></rect>
                        <polygon id="Shape" points="73.3775613 0 70.1479528 21.8153554 17.0535755 21.8153554 13.823967 0"></polygon>
                    </g>
                    <polygon id="Shape" fill="#3A3B3A" points="74 22 70.8127688 0 58 0 61.189304 22"></polygon>
                </g>
                <g id="Bare-tree" transform="translate(598.000000, 0.000000)">
                    <g id="Group" transform="translate(60.000000, 0.000000)" fill="#543A33">
                        <polygon id="Shape" points="254.764903 151.787879 232.140807 133.357222 209.51671 98.6369395 213.287648 147.70589 241.845269 176.308939 257.781041 176.308939"></polygon>
                        <path d="M76.1069586,74.5259942 C77.6203862,74.5259942 79.1330483,73.9395677 80.2744345,72.7690144 C82.5235241,70.4647032 82.4814207,66.7698329 80.1795103,64.5176484 L56.7271241,41.5665245 L51.9755586,14.0773026 C51.4274483,10.9014006 48.4128414,8.77416715 45.2405379,9.3230317 C42.069,9.87342939 39.9439241,12.8921844 40.4928,16.0673199 L45.5651172,45.4170086 C45.7741034,46.6258905 46.3581931,47.7374179 47.2339448,48.5952104 L72.0336414,72.8648357 C73.1689034,73.9732968 74.6386966,74.5259942 76.1069586,74.5259942 Z" id="Shape"></path>
                        <path d="M108.7578,115.282254 C109.136731,115.246225 109.524083,115.171101 109.888469,115.063014 C110.954069,114.745654 111.952303,114.091769 112.67189,113.24011 L134.6652,87.1981729 C136.743579,84.7374813 136.435841,81.0564092 133.979297,78.97517 C131.521221,76.8946974 127.845972,77.2020922 125.767593,79.6620173 L111.62849,96.4031527 L108.903248,82.3204841 C108.290834,79.1568473 105.230297,77.0855735 102.074069,77.7026628 C98.9155448,78.3159193 96.8501793,81.3768357 97.4625931,84.5412392 L101.2764,104.248236 L59.7731172,108.034329 C56.5686621,108.327159 54.2078069,111.165003 54.4987034,114.374634 C54.7742897,117.404121 57.3150414,119.680069 60.2944345,119.680069 C60.471269,119.680069 60.6504,119.672403 60.829531,119.656305 C60.8310621,119.654006 108.751676,115.28302 108.7578,115.282254 Z" id="Shape"></path>
                        <path d="M31.7521241,217.495245 C31.3984552,216.49717 30.7799172,215.614847 29.9638759,214.941798 L9.80091724,198.32868 C7.31528276,196.28117 3.64386207,196.639159 1.59916552,199.12668 C-0.445531034,201.615735 -0.0880344828,205.292207 2.39606897,207.339718 L21.3112345,222.925631 C21.3112345,222.925631 35.0805931,261.750899 35.099731,261.803026 C36.1546138,264.77732 39.5734138,266.405516 42.5397931,265.349182 C45.5720069,264.270617 47.1573931,260.935268 46.0810759,257.898882 L31.7521241,217.495245 Z" id="Shape"></path>
                        <path d="M330.299255,94.294317 C327.903952,92.1425533 324.221048,92.3418617 322.071476,94.7412277 L303.34769,115.637942 L273.650214,127.968997 C270.67771,129.203176 269.266862,132.617481 270.499345,135.594075 C271.429448,137.840127 273.598159,139.195424 275.883993,139.195424 C276.62731,139.195424 277.383641,139.051308 278.113945,138.748513 L309.033952,125.910755 C309.837745,125.577297 310.557331,125.066761 311.139124,124.417476 L330.746317,102.534951 C332.894359,100.134818 332.694559,96.4460807 330.299255,94.294317 Z" id="Shape"></path>
                        <path d="M275.885524,110.496553 C276.758979,110.496553 277.646214,110.298778 278.480628,109.881764 L290.54671,103.858052 C291.513559,103.375112 292.328069,102.632305 292.898379,101.712421 L309.659379,74.6609107 C309.667034,74.6486455 309.673924,74.637147 309.681579,74.6241153 L320.046683,57.8937118 C321.743069,55.1555216 320.901766,51.5580058 318.167338,49.8592853 C315.43291,48.1605648 311.840338,49.0030259 310.143952,51.7412161 L304.956807,60.1137003 L293.773366,40.3423112 L293.773366,15.0730778 C293.773366,11.850415 291.164483,9.23870893 287.947014,9.23870893 C284.728779,9.23870893 282.119897,11.8511816 282.119897,15.0730778 L282.119897,41.8823516 C282.119897,42.8896254 282.380172,43.8808012 282.876228,44.7577579 L297.955386,71.4160173 L283.866807,94.153268 L273.280469,99.4387723 C270.400593,100.876092 269.229352,104.37932 270.665462,107.263925 C271.685897,109.312202 273.745138,110.496553 275.885524,110.496553 Z" id="Shape"></path>
                        <path d="M119.614366,161.533291 C119.067021,160.524484 118.234138,159.699654 117.219062,159.162288 L87.2858069,143.303476 C84.4403793,141.795631 80.9151724,142.884161 79.4101655,145.731971 C77.9051586,148.579781 78.9914276,152.111372 81.8353241,153.61845 L110.213814,168.653199 C110.213814,168.653199 128.218014,201.825009 128.227966,201.843406 C129.735269,204.620692 133.358462,205.691591 136.129634,204.183746 C138.95669,202.645239 140.003152,199.10215 138.466759,196.271205 L119.614366,161.533291 Z" id="Shape"></path>
                        <path d="M186.914048,0.983510086 C183.87571,-0.083556196 180.551834,1.51397695 179.484703,4.55419597 L167.493641,38.7309798 L153.448697,53.1432738 L148.967359,50.5675965 L138.443028,31.5965072 C136.880607,28.7793602 133.3332,27.7644207 130.519924,29.3297579 C127.706648,30.8950951 126.693103,34.4473833 128.25629,37.2637637 L139.568338,57.6537752 C140.083531,58.5820922 140.841393,59.3517291 141.760779,59.8806628 L164.607641,73.0135504 L170.618483,82.7980576 C171.719297,84.5895331 173.630028,85.5761095 175.587455,85.5761095 C176.628559,85.5761095 177.682676,85.2970778 178.634214,84.7098847 C181.374766,83.0218963 182.230614,79.4274467 180.544179,76.6831239 L173.757103,65.6337752 C173.247269,64.8043458 172.539166,64.1151988 171.695566,63.6307262 L163.88729,59.1416888 L176.736497,45.9566744 C177.329007,45.3480173 177.782193,44.6174755 178.063138,43.8156427 L190.482124,8.42154467 C191.546959,5.38209222 189.95009,2.05134294 186.914048,0.983510086 Z" id="Shape"></path>
                    </g>
                    <g id="Group" transform="translate(0.000000, 15.000000)" fill="#6D4D42">
                        <polygon id="Shape" points="109.231631 136.965724 144.558101 81.0658596 138.345901 0.507283293 126.894866 72.0525908 95.9420176 104.88063 95.9420176 136.965724"></polygon>
                        <polygon id="Shape" points="84.8223407 157.012978 18.6197253 122.753375 0 87.8258111 12.9720615 32.444707 19.7487978 80.5019564 39.5152374 107.543293 79.3779407 121.099157 95.9420176 136.965724"></polygon>
                        <polygon id="Shape" points="189.173341 273.16708 127.166396 274.597879 39.2927978 215.050625 125.434435 247.085985 152.717798 239.036785 189.173341 247.085985"></polygon>
                        <path d="M144.558101,204.497908 C144.558101,204.497908 204.775558,152.487981 205.531086,150.227012 C206.286613,147.966044 228.955505,54.0237579 228.955505,54.0237579 L273.536996,19.8261308 L247.845226,68.7349734 L234.243431,157.011448 L189.17104,227.158092 L144.558101,204.497908 Z" id="Shape"></path>
                        <polygon id="Shape" points="218.616668 254.369288 237.267842 221.835061 297.718477 169.825898 315.09791 136.965724 333.988398 40.1786731 348.345721 83.9144504 341.545207 136.965724 316.608965 183.39324 269.003831 236.156058 233.540829 315.288426 209.047932 289.673298"></polygon>
                    </g>
                    <path d="M244.818662,377.894746 L218.475212,268.694028 L120.171022,177.823378 L66,47 L88.1148423,192.928231 L189.070974,287.472292 L190.600097,380.032476 C200.406181,379.620062 209.697886,379.240819 218.475212,378.894746 C227.252537,378.548674 236.033687,378.215341 244.818662,377.894746 Z" id="Shape" fill="#996A5F"></path>
                </g>
                <g id="Cardinal" transform="translate(889.000000, 70.000000) scale(-1, 1) translate(-889.000000, -70.000000) translate(852.000000, 38.000000)">
                    <g id="Group" transform="translate(25.000000, 31.000000)" fill="#F6A725">
                        <path d="M0.126739437,1.52828571 C0.126739437,10.1867143 7.75299296,17.1314286 8.07760563,17.423 C8.90961972,18.1698571 10.2111761,18.124 10.9844789,17.32 C11.7571901,16.5165714 11.7100141,15.2605714 10.8791831,14.5134286 C10.7673803,14.4115714 4.24037324,8.41157143 4.24037324,1.52842857 L0.126739437,1.52828571 Z" id="Shape"></path>
                        <path d="M9.46316197,0.0251428571 C9.46316197,8.68357143 17.0894155,15.6282857 17.4140282,15.9198571 C18.2460423,16.6667143 19.5475986,16.6208571 20.3209014,15.8168571 C21.0936127,15.0134286 21.0464366,13.7574286 20.2156056,13.0102857 C20.1038028,12.9084286 13.5767958,6.90842857 13.5767958,0.0252857143 L9.46316197,0.0251428571 Z" id="Shape"></path>
                    </g>
                    <path d="M0,64 C0,64 10.2846639,51.7090239 21.7975759,51.7090239 C33.310488,51.7090239 38.6830344,55.0472638 56.0289218,45.1841117 C61.5550904,42.3010076 73.6819078,46.7446394 73.9890063,42.3984956 C74.2961048,38.0523517 68.1558851,39.1144796 57.2570241,39.1144796 C46.3581632,39.1144796 43.7486282,46.5496636 31.9289094,44.2735515 C23.6395835,41.9975837 8.44280218,45.3358237 1.19453226e-15,49.7361916 L0,64 Z" id="Shape" fill="#6D4D42"></path>
                    <path d="M56.028849,41.7290484 C38.6829842,51.8113068 33.3102988,48.3989091 21.7974017,48.3989091 C10.2845046,48.3989091 0,60.9626299 0,60.9626299 L0,64 C0,64 10.2847964,51.4361318 21.7975476,51.4361318 C33.3102988,51.4361318 38.6829842,54.8485295 56.0289949,44.7662711 C61.5551564,41.8191199 73.6819579,46.3614653 73.9890561,41.9187735 C74.0450778,41.1084249 73.8854743,40.4826417 73.5227921,40 C71.2111675,42.4533058 60.9759737,39.0908823 56.028849,41.7290484 Z" id="Shape" fill="#5F433A"></path>
                    <path d="M18.5391255,28 L2.39977572,39.3104783 C1.5851325,39.8812722 2.11449322,41.1505821 3.09910415,40.9852779 C10.6814095,39.7127184 19.5181567,34.2110567 19.5181567,34.2110567 L22,31.4350771 L18.5391255,28 Z" id="Shape" fill="#CE4C48"></path>
                    <path d="M12,32.8840568 L13.5455064,34.8596556 C14.1437946,35.6243213 14.7805991,36.3372697 15.4503566,37 C17.9012839,35.6655452 19.5253923,34.5899763 19.5253923,34.5899763 L22,31.6446417 L18.5493581,28 L12,32.8840568 Z" id="Shape" fill="#AD302D"></path>
                    <g id="Group" transform="translate(25.000000, 31.000000)" fill="#DD9621">
                        <path d="M13.233009,0.0251428571 L9.2234955,0.0251428571 C9.2234955,3.76128571 10.6077117,7.17771429 12.2067027,9.87885714 C13.5035676,9.47728571 14.766991,8.97371429 15.9792432,8.37342857 C14.539964,6.08328571 13.233009,3.145 13.233009,0.0251428571 Z" id="Shape"></path>
                        <path d="M4.13304505,1.52828571 L0.123531532,1.52828571 C0.123531532,5.03571429 1.34356757,8.262 2.81585586,10.8788571 C3.53614414,10.9492857 4.26666667,10.9865714 5.00641441,10.9867143 C5.00742342,10.9867143 5.008,10.9867143 5.00915315,10.9867143 C5.85009009,10.9867143 6.6892973,10.9384286 7.5236036,10.8492857 C5.85571171,8.45228571 4.13304505,5.11014286 4.13304505,1.52828571 Z" id="Shape"></path>
                    </g>
                    <path d="M17,32.7012645 C29.7975324,48.1432854 58.5626511,32.7544694 49.1372997,12.8213995 L49.1372997,7.87788912 C41.1639232,-7.81755114 20.731961,4.78819513 20.731961,4.78819513 C20.731961,8.74309138 25.3343387,13.4167665 25.3343387,13.4167665 L17,32.7012645 Z" id="Shape" fill="#E95552"></path>
                    <circle id="Oval" fill="#202020" cx="42" cy="9" r="2"></circle>
                    <path d="M28.1898396,14.6296574 C26.6449792,15.1771598 25.1436423,15.8729012 23.6874629,16.6784657 L17,32.0756864 C17.9490493,33.2152655 18.9861854,34.1857845 20.0880867,35 C28.0767974,34.5387139 36.8144682,32.3055964 39.9491979,25.2420242 C40.6158645,24.1344097 41,22.8413129 41,21.4592141 C41.0001485,15.0066334 33.4221628,12.7752754 28.1898396,14.6296574 Z" id="Shape" fill="#D13834"></path>
                    <path d="M27.4580176,11.6267769 C20.8723061,13.9995957 15.081976,19.1446678 10.313178,24.124829 C8.48026672,26.0389622 6.74770525,28.0516041 5.13658161,30.1576468 C4.83262346,30.5550381 5.06357348,31.1333936 5.55717825,31.2081142 C10.7909304,32.0011456 33.5233644,34.6687608 38.9711962,22.1898266 C39.6239063,21.087259 40,19.8003708 40,18.4247517 C40.0001454,12.0018396 32.5808032,9.78094303 27.4580176,11.6267769 Z" id="Shape" fill="#E06E6E"></path>
                    <path d="M52.4742021,9.6717564 L48.8484585,8 C48.8484585,8 47,8.74997035 47,10.5 C47,12.2500296 48.8484585,13 48.8484585,13 L52.4742021,11.3282436 C53.175266,11.0049217 53.175266,9.99507827 52.4742021,9.6717564 Z" id="Shape" fill="#F6A725"></path>
                </g>
                <g id="Black-Bird" transform="translate(635.086824, 178.992404) rotate(-10.000000) translate(-635.086824, -178.992404) translate(591.086824, 141.992404)">
                    <g id="Group" transform="translate(46.000000, 29.000000)" fill="#3A3B3A">
                        <path d="M5.83186667,22.5535085 C5.83186667,13.0859491 12.5637333,5.49208605 12.8502667,5.17331515 C13.5846667,4.35660433 14.7336,4.40670146 15.4162667,5.28611346 C16.0984,6.1645682 16.0566667,7.53809104 15.3234667,8.35512095 C15.2246667,8.46632381 9.4632,15.0272926 9.4632,22.5535085 L5.83186667,22.5535085 Z" id="Shape"></path>
                        <path d="M0.0621333333,18 C0.0621333333,8.53261565 6.794,0.93847756 7.08066667,0.619701815 C7.81493333,-0.197021428 8.964,-0.146604443 9.64666667,0.732501841 C10.3285333,1.61065084 10.2870667,2.98355639 9.55453333,3.80059872 C9.4876,3.87558601 3.69346667,10.4524498 3.69346667,18 L0.0621333333,18 Z" id="Shape"></path>
                    </g>
                    <path d="M87.8316882,60.1671627 C85.6959199,55.7131967 81.2736409,47.4546931 74.9995214,40.602535 L67.9581109,39.9088465 C69.3895462,48.6230179 79.7455056,57.7431171 86.1673499,61.7279266 C87.172619,62.351642 88.3497537,61.24767 87.8316882,60.1671627 Z" id="Shape" fill="#424342"></path>
                    <path d="M40.2575179,10.9088465 C40.2575179,10.9088465 36.9897845,11.1025665 34.8629718,11.8814688 C33.8804,12.2412716 33.6436705,13.4073544 34.422857,14.054688 C35.3066953,14.7890853 36.7485802,15.6361074 38.8781354,15.9088465 L42.9581109,14.4427767 L40.2575179,10.9088465 Z" id="Shape" fill="#333333"></path>
                    <path d="M42.4557008,31.9240388 C42.0482542,31.0598996 41.6745506,30.1337275 41.3376831,29.1451043 C33.6797115,6.64751459 47.7703623,0.924038765 56.0102599,0.924038765 C64.2501575,0.924038765 71.5101024,6.84643806 69.6476299,18.5804138 L71.1317591,23.8589256 L42.4557008,31.9240388 Z" id="Shape" fill="#424342"></path>
                    <g id="Group" transform="translate(41.958111, 1.908847)" fill="#333333">
                        <path d="M26.9162727,17.3243161 C28.7226818,5.81101824 21.6814091,0 13.6894091,0 C13.0043182,0 12.2769545,0.0424012158 11.5253182,0.131854103 C18.6203182,1.05072948 24.3518182,6.80854103 22.7018182,17.3244529 L24.1412727,22.503693 L0.0786818182,29.3499848 C0.228272727,29.7149088 0.382090909,30.0724468 0.542727273,30.4171277 L28.3555909,22.503693 L26.9162727,17.3243161 Z" id="Shape"></path>
                        <path d="M35.9419091,42.6589058 C35.0176364,41.5105167 34.0429091,40.3764894 33.0173182,39.2796657 L26.0169545,38.6043921 C26.3736818,40.7306079 27.288,42.8817173 28.5582273,44.9727812 C32.0618182,44.2034043 34.4176364,43.2705775 34.5826364,43.2042401 L35.9419091,42.6589058 Z" id="Shape"></path>
                    </g>
                    <g id="Group" transform="translate(48.000000, 29.000000)" fill="#2D2E2E">
                        <path d="M0.0864220183,8.4132 C1.12802752,9.072 2.23678899,9.64266667 3.40637615,10.1293333 C5.13866972,6.13106667 8.29747706,3.22706667 8.34756881,3.1816 C9.10376147,2.4988 9.14642202,1.35146667 8.44266055,0.6176 C7.73807339,-0.116933333 6.55224771,-0.1592 5.79426606,0.523333333 C5.58811927,0.709066667 2.15091743,3.84893333 0.0864220183,8.4132 Z" id="Shape"></path>
                        <path d="M14.3976606,5.08026667 C13.6930734,4.3456 12.5073853,4.30346667 11.7492661,4.986 C11.5683028,5.14893333 8.89802752,7.5876 6.85169725,11.2676 C8.10165138,11.5818667 9.4087156,11.8129333 10.7712385,11.9593333 C12.4066514,9.392 14.2454587,7.69626667 14.3017431,7.6448 C15.0586239,6.96213333 15.1016972,5.8144 14.3976606,5.08026667 Z" id="Shape"></path>
                    </g>
                    <path d="M74.9581109,41.4611003 C74.9581109,41.4611003 50.7288423,50.8864409 42.0139031,32.7464362 C41.1444565,22.7365763 50.6427968,17.8033999 56.1433431,20.7586791 L70.2292071,24.9650395 L74.9581109,41.4611003 Z" id="Shape" fill="#FBBF0D"></path>
                    <circle id="Oval" fill="#202020" cx="49" cy="6" r="2"></circle>
                    <path d="M45.3648132,55.828094 C49.3891468,58.7227459 54.8334043,63.6874849 61.697586,70.7223111 C70.4969957,69.723812 73.9655503,68.0461669 72.10325,65.6893761 C69.3097995,62.1541898 58.3645472,53.8988286 48.788562,47.7435339 C35.8489624,39.4262525 22.3433041,31.6190946 8.1986884,24.5507008 C6.36232847,23.6330641 4.04613195,23.1633406 2.5535185,24.8184242 C1.46041992,26.0304248 1.85175035,27.694291 3.42754056,28.5349335 C18.4941429,36.5685364 31.9914382,46.2087902 45.3648132,55.828094 Z" id="Shape" fill="#543A33" transform="translate(37.262565, 47.220315) rotate(-4.000000) translate(-37.262565, -47.220315) "></path>
                    <path d="M76,36.0027768 L71.2351778,19.3523267 L60.0290298,16 C56.5291121,17.4377781 54,20.8133188 54,24.7286202 C54,27.6641799 54.8397851,30.0007898 56.2442124,31.8583215 C57.3010175,33.260396 58.6797983,34.3886534 60.2618001,35.2935942 C62.5743104,36.6192389 65.3193274,37.4671628 68.1241399,38 C72.7159873,37.2825364 76,36.0027768 76,36.0027768 Z" id="Shape" fill="#E0AB0A"></path>
                    <path d="M64.1860321,14.9510088 C64.1778816,14.9510088 64.1698792,14.9510088 64.1602468,14.9494809 C58.3357494,14.6968196 53.3054073,19.1484636 53.3054073,24.6290876 C53.3054073,27.6326867 54.1982578,30.0234539 55.6914299,31.9240388 L63.3054814,31.9240388 L73.3054073,24.3568413 L73.3054073,19.0773462 C70.6627179,16.7365835 67.6116143,15.1068559 64.1860321,14.9510088 Z" id="Shape" fill="#14977C"></path>
                    <path d="M82.3491346,35.2436268 C81.1370502,32.1092552 78.7038411,26.547419 75.1827463,21.9544233 L72.0011463,23.5873979 L62.6160106,30.9849387 L59.4790555,34.4210291 C65.8272347,38.0688115 75.4389321,38.1132138 80.5842062,37.8690688 C81.9324502,37.8055204 82.8264581,36.4772519 82.3491346,35.2436268 Z" id="Shape" fill="#424342"></path>
                    <path d="M75.4238259,21.8687069 C71.8852754,27.8926671 66.251562,32.6175905 59.4911059,35.1073748 C57.8892546,34.1460386 56.4937023,32.9475046 55.4238259,31.4585654 C62.8037435,29.5374791 68.9033936,24.6036197 72.1958528,18.1225671 C73.3546269,19.2406413 74.4322642,20.5145884 75.4238259,21.8687069 Z" id="Shape" fill="#EEEEEC"></path>
                </g>
                <g id="Pine-Tree" transform="translate(32.000000, 179.000000)">
                    <rect id="Rectangle-path" fill="#6D4D42" x="28" y="55" width="9" height="25"></rect>
                    <rect id="Rectangle-path" fill="#543A33" x="28" y="55" width="9" height="15"></rect>
                    <polygon id="Shape" fill="#14977C" points="49.9899481 40.3219013 46.1093763 38 18.3804542 38 16.0100519 40.3219013 5 57.6849187 5 63 61 63 61 57.6849187"></polygon>
                    <polygon id="Shape" fill="#44C2A7" points="41.0129291 19.0817444 40.3043366 17 26.6281188 17 24.9869174 19.0817444 16 33.9198383 18.5047169 38 45.9979498 38 50 33.9198383"></polygon>
                    <polygon id="Shape" fill="#14977C" points="33 0 24 14.4277169 26.6316498 17 40.3004536 17 42 14.4277169"></polygon>
                    <path d="M65.6369066,59.8208532 C63.8858549,57.3930489 60.1356936,57.3930489 58.3843302,59.8208532 C56.6332785,62.2486574 52.8831172,62.2486574 51.1317539,59.8208532 C49.3807022,57.3930489 45.6305409,57.3930489 43.8791775,59.8208532 C42.1281258,62.2486574 38.3779645,62.2486574 36.6266012,59.8208532 C34.8755494,57.3930489 31.1253881,57.3930489 29.3740248,59.8208532 C27.6229731,62.2486574 23.8728118,62.2486574 22.1214484,59.8208532 C20.3703967,57.3930489 16.6202354,57.3930489 14.8688721,59.8208532 C13.1178204,62.2486574 9.36765906,62.2486574 7.61629572,59.8208532 C5.865244,57.3930489 2.1150827,57.3930489 0.363719354,59.8208532 L0.362940278,59.8223435 C-0.816736937,62.2334566 1.02312947,65 3.80645718,65 L62.1918316,65 C64.9765616,65 66.8170513,62.2328605 65.6369066,59.8208532 Z" id="Shape" fill="#EEEEEC"></path>
                    <polygon id="Shape" fill="#117D66" points="53 45 49.9967467 40.3033454 46.1146398 38 18.3747483 38 16.0034082 40.3033454 13 45"></polygon>
                    <path d="M50.5175364,34.8208532 C48.7774856,32.3930489 45.0508845,32.3930489 43.310524,34.8208532 C41.5704732,37.2486574 37.8438721,37.2486574 36.1035116,34.8208532 C34.3634608,32.3930489 30.6368597,32.3930489 28.8964992,34.8208532 C27.1564484,37.2486574 23.4298473,37.2486574 21.6894868,34.8208532 C19.949436,32.3930489 16.2228349,32.3930489 14.4824744,34.8208532 C13.107218,37.1257099 14.8358109,40 17.5973171,40 L47.4019195,40 C50.1641999,39.999851 51.8927928,37.1257099 50.5175364,34.8208532 Z" id="Shape" fill="#EEEEEC"></path>
                    <polygon id="Shape" fill="#14977C" points="24.97949 19.0828484 22 24 44 24 41.02051 19.0828484 40.3112539 17 26.6222284 17"></polygon>
                    <path d="M45.6389851,16.1093966 C44.5768005,14.6752903 42.7968698,14.0228074 41.0852739,14.4200052 C39.4495374,14.7997004 37.4904005,14.884375 36.5737922,13.5201212 C34.5999134,11.4932929 31.4,11.4932929 29.4261212,13.5201212 C28.5095129,14.884375 26.550376,14.7995427 24.9146395,14.4200052 C23.2030436,14.0228074 21.4231129,14.6751326 20.3609284,16.1093966 C19.4830176,17.2948405 20.3064141,19 21.7568019,19 L44.2428044,19 C45.6936529,19 46.5170494,17.2948405 45.6389851,16.1093966 Z" id="Shape" fill="#EEEEEC"></path>
                </g>
                <g id="Pine-tree" transform="translate(113.000000, 183.000000)">
                    <rect id="Rectangle-path" fill="#6D4D42" x="28" y="55" width="9" height="25"></rect>
                    <rect id="Rectangle-path" fill="#543A33" x="28" y="55" width="9" height="15"></rect>
                    <polygon id="Shape" fill="#14977C" points="49.9899481 40.3219013 46.1093763 38 18.3804542 38 16.0100519 40.3219013 5 57.6849187 5 63 61 63 61 57.6849187"></polygon>
                    <polygon id="Shape" fill="#44C2A7" points="41.0129291 19.0817444 40.3043366 17 26.6281188 17 24.9869174 19.0817444 16 33.9198383 18.5047169 38 45.9979498 38 50 33.9198383"></polygon>
                    <polygon id="Shape" fill="#14977C" points="33 0 24 14.4277169 26.6316498 17 40.3004536 17 42 14.4277169"></polygon>
                    <path d="M65.6369066,59.8208532 C63.8858549,57.3930489 60.1356936,57.3930489 58.3843302,59.8208532 C56.6332785,62.2486574 52.8831172,62.2486574 51.1317539,59.8208532 C49.3807022,57.3930489 45.6305409,57.3930489 43.8791775,59.8208532 C42.1281258,62.2486574 38.3779645,62.2486574 36.6266012,59.8208532 C34.8755494,57.3930489 31.1253881,57.3930489 29.3740248,59.8208532 C27.6229731,62.2486574 23.8728118,62.2486574 22.1214484,59.8208532 C20.3703967,57.3930489 16.6202354,57.3930489 14.8688721,59.8208532 C13.1178204,62.2486574 9.36765906,62.2486574 7.61629572,59.8208532 C5.865244,57.3930489 2.1150827,57.3930489 0.363719354,59.8208532 L0.362940278,59.8223435 C-0.816736937,62.2334566 1.02312947,65 3.80645718,65 L62.1918316,65 C64.9765616,65 66.8170513,62.2328605 65.6369066,59.8208532 Z" id="Shape" fill="#EEEEEC"></path>
                    <polygon id="Shape" fill="#117D66" points="53 45 49.9967467 40.3033454 46.1146398 38 18.3747483 38 16.0034082 40.3033454 13 45"></polygon>
                    <path d="M50.5175364,34.8208532 C48.7774856,32.3930489 45.0508845,32.3930489 43.310524,34.8208532 C41.5704732,37.2486574 37.8438721,37.2486574 36.1035116,34.8208532 C34.3634608,32.3930489 30.6368597,32.3930489 28.8964992,34.8208532 C27.1564484,37.2486574 23.4298473,37.2486574 21.6894868,34.8208532 C19.949436,32.3930489 16.2228349,32.3930489 14.4824744,34.8208532 C13.107218,37.1257099 14.8358109,40 17.5973171,40 L47.4019195,40 C50.1641999,39.999851 51.8927928,37.1257099 50.5175364,34.8208532 Z" id="Shape" fill="#EEEEEC"></path>
                    <polygon id="Shape" fill="#14977C" points="24.97949 19.0828484 22 24 44 24 41.02051 19.0828484 40.3112539 17 26.6222284 17"></polygon>
                    <path d="M45.6389851,16.1093966 C44.5768005,14.6752903 42.7968698,14.0228074 41.0852739,14.4200052 C39.4495374,14.7997004 37.4904005,14.884375 36.5737922,13.5201212 C34.5999134,11.4932929 31.4,11.4932929 29.4261212,13.5201212 C28.5095129,14.884375 26.550376,14.7995427 24.9146395,14.4200052 C23.2030436,14.0228074 21.4231129,14.6751326 20.3609284,16.1093966 C19.4830176,17.2948405 20.3064141,19 21.7568019,19 L44.2428044,19 C45.6936529,19 46.5170494,17.2948405 45.6389851,16.1093966 Z" id="Shape" fill="#EEEEEC"></path>
                </g>
                <g id="Cabin" transform="translate(881.000000, 223.000000)">
                    <rect id="Rectangle-path" fill="#6D4D42" x="17" y="60" width="11" height="23"></rect>
                    <polygon id="Shape" fill="#14977C" points="45 67 0 67 22.500114 35"></polygon>
                    <polygon id="Shape" fill="#117D66" points="22.636744 35 0 67 4.72651196 67 25 38.3408407"></polygon>
                    <polygon id="Shape" fill="#44C2A7" points="41 49 5 49 23.0001165 22"></polygon>
                    <polygon id="Shape" fill="#1F967E" points="23.5297503 22 5 49 9.94049943 49 26 25.599266"></polygon>
                    <polygon id="Shape" fill="#14977C" points="35 30 11 30 23 9"></polygon>
                    <polygon id="Shape" fill="#117D66" points="23.5145159 9 11 30 15.9709681 30 26 13.1708019"></polygon>
                    <polygon id="Shape" fill="#CCE5F2" points="98.9111227 12 54 12 55.4539423 19.1195368 70.890655 37.4902401 77.3510052 40 118 40"></polygon>
                    <polygon id="Shape" fill="#543A33" points="90.3149035 47 71.8896514 53.7878229 64 60.5756458 71.8896514 67.3634688 90.3149035 75 114 67.3634688 114 53.7878229"></polygon>
                    <g id="Group" transform="translate(67.000000, 40.000000)" fill="#6D4D42">
                        <polygon id="Shape" points="47.8909515 13.6949266 47.8909515 0.0488757062 11.1532427 0.0488757062 5.34128155 0.0488757062 0.0265631068 13.6949266"></polygon>
                        <polygon id="Shape" points="5.34128155 27.341209 1.35518447 30.7527797 5.34128155 40.9872599 47.8909515 40.9872599 47.8909515 27.341209"></polygon>
                    </g>
                    <polygon id="Shape" fill="#996A5F" points="47.8195006 81 37 81 37 44.9099546 37 38.6713416 52.5910072 19 55.9462345 19 72 37.6174001 72 44.9099546 72 81 61.1804994 81 54.5001148 69.2760847"></polygon>
                    <rect id="Rectangle-path" fill="#5F433A" x="47" y="57" width="14" height="23"></rect>
                    <g id="Group" transform="translate(49.000000, 37.000000)" fill="#85D0F4">
                        <rect id="Rectangle-path" x="0.206733333" y="0.119188406" width="9.70386667" height="13.9793623"></rect>
                        <polygon id="Shape" points="32.5059 13.1686957 32.5059 28.4804638 44.2038333 31.843942 55.902 28.4804638 55.902 13.1686957"></polygon>
                    </g>
                    <rect id="Rectangle-path" fill="#543A33" x="83" y="3" width="9" height="15"></rect>
                    <rect id="Rectangle-path" fill="#CCE5F2" x="80" y="0" width="15" height="6"></rect>
                    <rect id="Rectangle-path" fill="#EEEEEC" x="81" y="65" width="23" height="7"></rect>
                    <polygon id="Shape" fill="#DEEEF9" points="72.2068412 45 54.5001161 23.7001277 36.7931588 45 31 40.2688436 54.5001161 12 78 40.2688436"></polygon>
                </g>
            </g>
        </g>
    </g>
</svg>