
<svg width="36px" height="40px" viewBox="0 0 36 40" version="1.1" xmlns="http://www.w3.org/2000/svg" xmlns:xlink="http://www.w3.org/1999/xlink">
    <g id="Welcome" stroke="none" stroke-width="1" fill="none" fill-rule="evenodd">
        <g id="Desktop" transform="translate(-326.000000, -3394.000000)" fill="#430098" fill-rule="nonzero">
            <g id="heroku" transform="translate(326.000000, 3394.000000)">
                <path d="M32.2692674,0 L3.59657469,0 C1.59847764,0 0,1.6 0,3.6 L0,36.4 C0,38.4 1.59847764,40 3.59657469,40 L32.2692674,40 C34.2673644,40 35.8658421,38.4 35.8658421,36.4 L35.8658421,3.6 C35.8658421,1.6 34.2673644,0 32.2692674,0 Z M33.867745,36.4 C33.867745,37.3 33.168411,38 32.2692674,38 L3.59657469,38 C2.69743102,38 1.99809705,37.3 1.99809705,36.4 L1.99809705,3.6 C1.99809705,2.7 2.69743102,2 3.59657469,2 L32.2692674,2 C33.168411,2 33.867745,2.7 33.867745,3.6 L33.867745,36.4 Z M8.99143673,34 L13.4871551,30 L8.99143673,26 L8.99143673,34 Z M25.1760228,17.8 C24.376784,17 22.8782112,16 20.3805899,16 C17.6831589,16 14.885823,16.7 12.887726,17.4 L12.887726,6 L8.99143673,6 L8.99143673,23.3 L11.7887726,22 C11.7887726,22 16.3843958,19.9 20.3805899,19.9 C22.378687,19.9 22.8782112,21 22.8782112,22 L22.8782112,34 L26.8744053,34 L26.8744053,22 C26.8744053,21.7 26.8744053,19.5 25.1760228,17.8 Z M19.8810657,12.5 L23.8772598,12.5 C25.6755471,10.4 26.5746908,8.3 26.8744053,6 L22.8782112,6 C22.4785918,8.3 21.4795433,10.4 19.8810657,12.5 Z" id="logo"></path>
            </g>
        </g>
    </g>
</svg>