
<svg viewBox="0 0 1024 447" version="1.1" xmlns="http://www.w3.org/2000/svg" xmlns:xlink="http://www.w3.org/1999/xlink">
    <!-- Generator: Sketch 48 (47235) - http://www.bohemiancoding.com/sketch -->
    <desc>Created with Sketch.</desc>
    <defs></defs>
    <g id="Welcome" stroke="none" stroke-width="1" fill="none" fill-rule="evenodd">
        <g id="Desktop" transform="translate(0.000000, -1291.000000)" fill="#CEEBFF">
            <g id="Group-2" transform="translate(0.000000, 1291.000000)">
                <path d="M1.11898019e-15,223 L1.1379786e-13,122.302167 C57.5049216,59.3679947 124.331539,20.5965299 200.479852,5.98777265 C276.628166,-8.62098459 362.869534,3.50170748 459.203956,42.3558489 C653.651312,112.569329 787.178225,148.235578 859.784694,149.354596 C932.391164,150.473613 987.462932,143.838338 1025,129.44877 L1025,223 L1025,324.697833 C967.495078,387.632005 900.668461,426.40347 824.520148,441.012227 C748.371834,455.620985 662.130466,443.498293 565.796044,404.644151 C371.348688,334.430671 237.821775,298.764422 165.215306,297.645404 C92.6088363,296.526387 37.5370677,303.161662 0,317.55123 L0,223 Z" id="Combined-Shape"></path>
            </g>
        </g>
    </g>
</svg>