<svg width="553px" height="599px" viewBox="0 0 553 599" version="1.1" xmlns="http://www.w3.org/2000/svg" xmlns:xlink="http://www.w3.org/1999/xlink">
    <defs>
        <path d="M62,1.15470054 L109.961524,28.8452995 C111.199129,29.5598306 111.961524,30.8803387 111.961524,32.3094011 L111.961524,87.6905989 C111.961524,89.1196613 111.199129,90.4401694 109.961524,91.1547005 L62,118.845299 C60.7623957,119.559831 59.2376043,119.559831 58,118.845299 L10.0384758,91.1547005 C8.80087147,90.4401694 8.03847577,89.1196613 8.03847577,87.6905989 L8.03847577,32.3094011 C8.03847577,30.8803387 8.80087147,29.5598306 10.0384758,28.8452995 L58,1.15470054 C59.2376043,0.440169359 60.7623957,0.440169359 62,1.15470054 Z" id="path-1"></path>
        <filter x="-10.8%" y="-9.2%" width="121.7%" height="121.7%" filterUnits="objectBoundingBox" id="filter-2">
            <feOffset dx="0" dy="2" in="SourceAlpha" result="shadowOffsetOuter1"></feOffset>
            <feGaussianBlur stdDeviation="4" in="shadowOffsetOuter1" result="shadowBlurOuter1"></feGaussianBlur>
            <feColorMatrix values="0 0 0 0 0   0 0 0 0 0   0 0 0 0 0  0 0 0 0.1 0" type="matrix" in="shadowBlurOuter1"></feColorMatrix>
        </filter>
        <linearGradient x1="12.9593594%" y1="11.9949148%" x2="79.6388325%" y2="78.2338965%" id="linearGradient-3">
            <stop stop-color="#387EB8" offset="0%"></stop>
            <stop stop-color="#366994" offset="100%"></stop>
        </linearGradient>
        <linearGradient x1="19.127525%" y1="20.5447058%" x2="90.7415328%" y2="88.4740687%" id="linearGradient-4">
            <stop stop-color="#FFE052" offset="0%"></stop>
            <stop stop-color="#FFC331" offset="100%"></stop>
        </linearGradient>
        <path d="M62,1.15470054 L109.961524,28.8452995 C111.199129,29.5598306 111.961524,30.8803387 111.961524,32.3094011 L111.961524,87.6905989 C111.961524,89.1196613 111.199129,90.4401694 109.961524,91.1547005 L62,118.845299 C60.7623957,119.559831 59.2376043,119.559831 58,118.845299 L10.0384758,91.1547005 C8.80087147,90.4401694 8.03847577,89.1196613 8.03847577,87.6905989 L8.03847577,32.3094011 C8.03847577,30.8803387 8.80087147,29.5598306 10.0384758,28.8452995 L58,1.15470054 C59.2376043,0.440169359 60.7623957,0.440169359 62,1.15470054 Z" id="path-5"></path>
        <filter x="-10.8%" y="-9.2%" width="121.7%" height="121.7%" filterUnits="objectBoundingBox" id="filter-6">
            <feOffset dx="0" dy="2" in="SourceAlpha" result="shadowOffsetOuter1"></feOffset>
            <feGaussianBlur stdDeviation="4" in="shadowOffsetOuter1" result="shadowBlurOuter1"></feGaussianBlur>
            <feColorMatrix values="0 0 0 0 0   0 0 0 0 0   0 0 0 0 0  0 0 0 0.1 0" type="matrix" in="shadowBlurOuter1"></feColorMatrix>
        </filter>
        <path d="M62,1.15470054 L109.961524,28.8452995 C111.199129,29.5598306 111.961524,30.8803387 111.961524,32.3094011 L111.961524,87.6905989 C111.961524,89.1196613 111.199129,90.4401694 109.961524,91.1547005 L62,118.845299 C60.7623957,119.559831 59.2376043,119.559831 58,118.845299 L10.0384758,91.1547005 C8.80087147,90.4401694 8.03847577,89.1196613 8.03847577,87.6905989 L8.03847577,32.3094011 C8.03847577,30.8803387 8.80087147,29.5598306 10.0384758,28.8452995 L58,1.15470054 C59.2376043,0.440169359 60.7623957,0.440169359 62,1.15470054 Z" id="path-7"></path>
        <filter x="-10.8%" y="-9.2%" width="121.7%" height="121.7%" filterUnits="objectBoundingBox" id="filter-8">
            <feOffset dx="0" dy="2" in="SourceAlpha" result="shadowOffsetOuter1"></feOffset>
            <feGaussianBlur stdDeviation="4" in="shadowOffsetOuter1" result="shadowBlurOuter1"></feGaussianBlur>
            <feColorMatrix values="0 0 0 0 0   0 0 0 0 0   0 0 0 0 0  0 0 0 0.1 0" type="matrix" in="shadowBlurOuter1"></feColorMatrix>
        </filter>
        <path d="M62,1.15470054 L109.961524,28.8452995 C111.199129,29.5598306 111.961524,30.8803387 111.961524,32.3094011 L111.961524,87.6905989 C111.961524,89.1196613 111.199129,90.4401694 109.961524,91.1547005 L62,118.845299 C60.7623957,119.559831 59.2376043,119.559831 58,118.845299 L10.0384758,91.1547005 C8.80087147,90.4401694 8.03847577,89.1196613 8.03847577,87.6905989 L8.03847577,32.3094011 C8.03847577,30.8803387 8.80087147,29.5598306 10.0384758,28.8452995 L58,1.15470054 C59.2376043,0.440169359 60.7623957,0.440169359 62,1.15470054 Z" id="path-9"></path>
        <filter x="-10.8%" y="-9.2%" width="121.7%" height="121.7%" filterUnits="objectBoundingBox" id="filter-10">
            <feOffset dx="0" dy="2" in="SourceAlpha" result="shadowOffsetOuter1"></feOffset>
            <feGaussianBlur stdDeviation="4" in="shadowOffsetOuter1" result="shadowBlurOuter1"></feGaussianBlur>
            <feColorMatrix values="0 0 0 0 0   0 0 0 0 0   0 0 0 0 0  0 0 0 0.1 0" type="matrix" in="shadowBlurOuter1"></feColorMatrix>
        </filter>
        <path d="M62,1.15470054 L109.961524,28.8452995 C111.199129,29.5598306 111.961524,30.8803387 111.961524,32.3094011 L111.961524,87.6905989 C111.961524,89.1196613 111.199129,90.4401694 109.961524,91.1547005 L62,118.845299 C60.7623957,119.559831 59.2376043,119.559831 58,118.845299 L10.0384758,91.1547005 C8.80087147,90.4401694 8.03847577,89.1196613 8.03847577,87.6905989 L8.03847577,32.3094011 C8.03847577,30.8803387 8.80087147,29.5598306 10.0384758,28.8452995 L58,1.15470054 C59.2376043,0.440169359 60.7623957,0.440169359 62,1.15470054 Z" id="path-11"></path>
        <filter x="-10.8%" y="-9.2%" width="121.7%" height="121.7%" filterUnits="objectBoundingBox" id="filter-12">
            <feOffset dx="0" dy="2" in="SourceAlpha" result="shadowOffsetOuter1"></feOffset>
            <feGaussianBlur stdDeviation="4" in="shadowOffsetOuter1" result="shadowBlurOuter1"></feGaussianBlur>
            <feColorMatrix values="0 0 0 0 0   0 0 0 0 0   0 0 0 0 0  0 0 0 0.1 0" type="matrix" in="shadowBlurOuter1"></feColorMatrix>
        </filter>
        <path d="M62,1.15470054 L109.961524,28.8452995 C111.199129,29.5598306 111.961524,30.8803387 111.961524,32.3094011 L111.961524,87.6905989 C111.961524,89.1196613 111.199129,90.4401694 109.961524,91.1547005 L62,118.845299 C60.7623957,119.559831 59.2376043,119.559831 58,118.845299 L10.0384758,91.1547005 C8.80087147,90.4401694 8.03847577,89.1196613 8.03847577,87.6905989 L8.03847577,32.3094011 C8.03847577,30.8803387 8.80087147,29.5598306 10.0384758,28.8452995 L58,1.15470054 C59.2376043,0.440169359 60.7623957,0.440169359 62,1.15470054 Z" id="path-13"></path>
        <filter x="-10.8%" y="-9.2%" width="121.7%" height="121.7%" filterUnits="objectBoundingBox" id="filter-14">
            <feOffset dx="0" dy="2" in="SourceAlpha" result="shadowOffsetOuter1"></feOffset>
            <feGaussianBlur stdDeviation="4" in="shadowOffsetOuter1" result="shadowBlurOuter1"></feGaussianBlur>
            <feColorMatrix values="0 0 0 0 0   0 0 0 0 0   0 0 0 0 0  0 0 0 0.1 0" type="matrix" in="shadowBlurOuter1"></feColorMatrix>
        </filter>
        <path d="M62,1.15470054 L109.961524,28.8452995 C111.199129,29.5598306 111.961524,30.8803387 111.961524,32.3094011 L111.961524,87.6905989 C111.961524,89.1196613 111.199129,90.4401694 109.961524,91.1547005 L62,118.845299 C60.7623957,119.559831 59.2376043,119.559831 58,118.845299 L10.0384758,91.1547005 C8.80087147,90.4401694 8.03847577,89.1196613 8.03847577,87.6905989 L8.03847577,32.3094011 C8.03847577,30.8803387 8.80087147,29.5598306 10.0384758,28.8452995 L58,1.15470054 C59.2376043,0.440169359 60.7623957,0.440169359 62,1.15470054 Z" id="path-15"></path>
        <filter x="-10.8%" y="-9.2%" width="121.7%" height="121.7%" filterUnits="objectBoundingBox" id="filter-16">
            <feOffset dx="0" dy="2" in="SourceAlpha" result="shadowOffsetOuter1"></feOffset>
            <feGaussianBlur stdDeviation="4" in="shadowOffsetOuter1" result="shadowBlurOuter1"></feGaussianBlur>
            <feColorMatrix values="0 0 0 0 0   0 0 0 0 0   0 0 0 0 0  0 0 0 0.1 0" type="matrix" in="shadowBlurOuter1"></feColorMatrix>
        </filter>
        <path d="M62,1.15470054 L109.961524,28.8452995 C111.199129,29.5598306 111.961524,30.8803387 111.961524,32.3094011 L111.961524,87.6905989 C111.961524,89.1196613 111.199129,90.4401694 109.961524,91.1547005 L62,118.845299 C60.7623957,119.559831 59.2376043,119.559831 58,118.845299 L10.0384758,91.1547005 C8.80087147,90.4401694 8.03847577,89.1196613 8.03847577,87.6905989 L8.03847577,32.3094011 C8.03847577,30.8803387 8.80087147,29.5598306 10.0384758,28.8452995 L58,1.15470054 C59.2376043,0.440169359 60.7623957,0.440169359 62,1.15470054 Z" id="path-17"></path>
        <filter x="-10.8%" y="-9.2%" width="121.7%" height="121.7%" filterUnits="objectBoundingBox" id="filter-18">
            <feOffset dx="0" dy="2" in="SourceAlpha" result="shadowOffsetOuter1"></feOffset>
            <feGaussianBlur stdDeviation="4" in="shadowOffsetOuter1" result="shadowBlurOuter1"></feGaussianBlur>
            <feColorMatrix values="0 0 0 0 0   0 0 0 0 0   0 0 0 0 0  0 0 0 0.1 0" type="matrix" in="shadowBlurOuter1"></feColorMatrix>
        </filter>
        <path d="M62,1.15470054 L109.961524,28.8452995 C111.199129,29.5598306 111.961524,30.8803387 111.961524,32.3094011 L111.961524,87.6905989 C111.961524,89.1196613 111.199129,90.4401694 109.961524,91.1547005 L62,118.845299 C60.7623957,119.559831 59.2376043,119.559831 58,118.845299 L10.0384758,91.1547005 C8.80087147,90.4401694 8.03847577,89.1196613 8.03847577,87.6905989 L8.03847577,32.3094011 C8.03847577,30.8803387 8.80087147,29.5598306 10.0384758,28.8452995 L58,1.15470054 C59.2376043,0.440169359 60.7623957,0.440169359 62,1.15470054 Z" id="path-19"></path>
        <filter x="-10.8%" y="-9.2%" width="121.7%" height="121.7%" filterUnits="objectBoundingBox" id="filter-20">
            <feOffset dx="0" dy="2" in="SourceAlpha" result="shadowOffsetOuter1"></feOffset>
            <feGaussianBlur stdDeviation="4" in="shadowOffsetOuter1" result="shadowBlurOuter1"></feGaussianBlur>
            <feColorMatrix values="0 0 0 0 0   0 0 0 0 0   0 0 0 0 0  0 0 0 0.1 0" type="matrix" in="shadowBlurOuter1"></feColorMatrix>
        </filter>
        <path d="M62,1.15470054 L109.961524,28.8452995 C111.199129,29.5598306 111.961524,30.8803387 111.961524,32.3094011 L111.961524,87.6905989 C111.961524,89.1196613 111.199129,90.4401694 109.961524,91.1547005 L62,118.845299 C60.7623957,119.559831 59.2376043,119.559831 58,118.845299 L10.0384758,91.1547005 C8.80087147,90.4401694 8.03847577,89.1196613 8.03847577,87.6905989 L8.03847577,32.3094011 C8.03847577,30.8803387 8.80087147,29.5598306 10.0384758,28.8452995 L58,1.15470054 C59.2376043,0.440169359 60.7623957,0.440169359 62,1.15470054 Z" id="path-21"></path>
        <filter x="-10.8%" y="-9.2%" width="121.7%" height="121.7%" filterUnits="objectBoundingBox" id="filter-22">
            <feOffset dx="0" dy="2" in="SourceAlpha" result="shadowOffsetOuter1"></feOffset>
            <feGaussianBlur stdDeviation="4" in="shadowOffsetOuter1" result="shadowBlurOuter1"></feGaussianBlur>
            <feColorMatrix values="0 0 0 0 0   0 0 0 0 0   0 0 0 0 0  0 0 0 0.1 0" type="matrix" in="shadowBlurOuter1"></feColorMatrix>
        </filter>
        <path d="M62,1.15470054 L109.961524,28.8452995 C111.199129,29.5598306 111.961524,30.8803387 111.961524,32.3094011 L111.961524,87.6905989 C111.961524,89.1196613 111.199129,90.4401694 109.961524,91.1547005 L62,118.845299 C60.7623957,119.559831 59.2376043,119.559831 58,118.845299 L10.0384758,91.1547005 C8.80087147,90.4401694 8.03847577,89.1196613 8.03847577,87.6905989 L8.03847577,32.3094011 C8.03847577,30.8803387 8.80087147,29.5598306 10.0384758,28.8452995 L58,1.15470054 C59.2376043,0.440169359 60.7623957,0.440169359 62,1.15470054 Z" id="path-23"></path>
        <filter x="-10.8%" y="-9.2%" width="121.7%" height="121.7%" filterUnits="objectBoundingBox" id="filter-24">
            <feOffset dx="0" dy="2" in="SourceAlpha" result="shadowOffsetOuter1"></feOffset>
            <feGaussianBlur stdDeviation="4" in="shadowOffsetOuter1" result="shadowBlurOuter1"></feGaussianBlur>
            <feColorMatrix values="0 0 0 0 0   0 0 0 0 0   0 0 0 0 0  0 0 0 0.1 0" type="matrix" in="shadowBlurOuter1"></feColorMatrix>
        </filter>
        <path d="M62,1.15470054 L109.961524,28.8452995 C111.199129,29.5598306 111.961524,30.8803387 111.961524,32.3094011 L111.961524,87.6905989 C111.961524,89.1196613 111.199129,90.4401694 109.961524,91.1547005 L62,118.845299 C60.7623957,119.559831 59.2376043,119.559831 58,118.845299 L10.0384758,91.1547005 C8.80087147,90.4401694 8.03847577,89.1196613 8.03847577,87.6905989 L8.03847577,32.3094011 C8.03847577,30.8803387 8.80087147,29.5598306 10.0384758,28.8452995 L58,1.15470054 C59.2376043,0.440169359 60.7623957,0.440169359 62,1.15470054 Z" id="path-25"></path>
        <filter x="-10.8%" y="-9.2%" width="121.7%" height="121.7%" filterUnits="objectBoundingBox" id="filter-26">
            <feOffset dx="0" dy="2" in="SourceAlpha" result="shadowOffsetOuter1"></feOffset>
            <feGaussianBlur stdDeviation="4" in="shadowOffsetOuter1" result="shadowBlurOuter1"></feGaussianBlur>
            <feColorMatrix values="0 0 0 0 0   0 0 0 0 0   0 0 0 0 0  0 0 0 0.1 0" type="matrix" in="shadowBlurOuter1"></feColorMatrix>
        </filter>
        <path d="M62,1.15470054 L109.961524,28.8452995 C111.199129,29.5598306 111.961524,30.8803387 111.961524,32.3094011 L111.961524,87.6905989 C111.961524,89.1196613 111.199129,90.4401694 109.961524,91.1547005 L62,118.845299 C60.7623957,119.559831 59.2376043,119.559831 58,118.845299 L10.0384758,91.1547005 C8.80087147,90.4401694 8.03847577,89.1196613 8.03847577,87.6905989 L8.03847577,32.3094011 C8.03847577,30.8803387 8.80087147,29.5598306 10.0384758,28.8452995 L58,1.15470054 C59.2376043,0.440169359 60.7623957,0.440169359 62,1.15470054 Z" id="path-27"></path>
        <filter x="-10.8%" y="-9.2%" width="121.7%" height="121.7%" filterUnits="objectBoundingBox" id="filter-28">
            <feOffset dx="0" dy="2" in="SourceAlpha" result="shadowOffsetOuter1"></feOffset>
            <feGaussianBlur stdDeviation="4" in="shadowOffsetOuter1" result="shadowBlurOuter1"></feGaussianBlur>
            <feColorMatrix values="0 0 0 0 0   0 0 0 0 0   0 0 0 0 0  0 0 0 0.1 0" type="matrix" in="shadowBlurOuter1"></feColorMatrix>
        </filter>
        <path d="M62,1.15470054 L109.961524,28.8452995 C111.199129,29.5598306 111.961524,30.8803387 111.961524,32.3094011 L111.961524,87.6905989 C111.961524,89.1196613 111.199129,90.4401694 109.961524,91.1547005 L62,118.845299 C60.7623957,119.559831 59.2376043,119.559831 58,118.845299 L10.0384758,91.1547005 C8.80087147,90.4401694 8.03847577,89.1196613 8.03847577,87.6905989 L8.03847577,32.3094011 C8.03847577,30.8803387 8.80087147,29.5598306 10.0384758,28.8452995 L58,1.15470054 C59.2376043,0.440169359 60.7623957,0.440169359 62,1.15470054 Z" id="path-29"></path>
        <filter x="-10.8%" y="-9.2%" width="121.7%" height="121.7%" filterUnits="objectBoundingBox" id="filter-30">
            <feOffset dx="0" dy="2" in="SourceAlpha" result="shadowOffsetOuter1"></feOffset>
            <feGaussianBlur stdDeviation="4" in="shadowOffsetOuter1" result="shadowBlurOuter1"></feGaussianBlur>
            <feColorMatrix values="0 0 0 0 0   0 0 0 0 0   0 0 0 0 0  0 0 0 0.1 0" type="matrix" in="shadowBlurOuter1"></feColorMatrix>
        </filter>
        <linearGradient x1="41.7030965%" y1="1.92488263%" x2="71.8761384%" y2="95.2347418%" id="linearGradient-31">
            <stop stop-color="#00CDD7" offset="28%"></stop>
            <stop stop-color="#2086D7" offset="94%"></stop>
        </linearGradient>
        <linearGradient x1="22.4892241%" y1="15.1271186%" x2="82.8771552%" y2="84.7627119%" id="linearGradient-32">
            <stop stop-color="#FFF045" offset="14%"></stop>
            <stop stop-color="#00CDD7" offset="37%"></stop>
        </linearGradient>
        <linearGradient x1="11171%" y1="-27691.7984%" x2="11907%" y2="-28759.6256%" id="linearGradient-33">
            <stop stop-color="#00CDD7" offset="28%"></stop>
            <stop stop-color="#2086D7" offset="94%"></stop>
        </linearGradient>
        <linearGradient x1="100%" y1="46.3385344%" x2="0%" y2="46.3385339%" id="linearGradient-34">
            <stop stop-color="#FFFFFF" offset="0%"></stop>
            <stop stop-color="#FFFFFF" stop-opacity="0" offset="100%"></stop>
        </linearGradient>
    </defs>
    <g id="Welcome" stroke="none" stroke-width="1" fill="none" fill-rule="evenodd">
        <g id="Desktop" transform="translate(-236.000000, -1898.000000)">
            <g id="Skills" transform="translate(236.000000, 1898.000000)">
                <g id="Group-11" transform="translate(271.000000, 240.000000)">
                    <g id="Polygon-Copy">
                        <use fill="black" fill-opacity="1" filter="url(#filter-2)" xlink:href="#path-1"></use>
                        <use fill="#FFFFFF" fill-rule="evenodd" xlink:href="#path-1"></use>
                    </g>
                    <g id="python" transform="translate(35.000000, 35.000000)" fill-rule="nonzero">
                        <path d="M24.9165711,0.445684414 C12.4437689,0.445685305 13.2226511,5.86353344 13.2226511,5.86353344 L13.2365559,11.4763693 L25.1390476,11.4763693 L25.1390476,13.1616128 L8.50893065,13.1616128 C8.50893065,13.1616128 0.52758688,12.2549681 0.52758688,24.8608241 C0.527585989,37.4666775 7.4938817,37.0196471 7.4938817,37.0196471 L11.6514109,37.0196471 L11.6514109,31.1700415 C11.6514109,31.1700415 11.4273095,24.1922977 18.5064675,24.1922977 L30.3116258,24.1922977 C30.3116258,24.1922977 36.9442058,24.2996898 36.9442058,17.7716591 L36.9442058,6.97774402 C36.9442058,6.97774312 37.9512145,0.445684414 24.9165711,0.445684414 Z M18.3535149,4.22007279 C19.5377257,4.22007192 20.4948511,5.17877123 20.4948511,6.36492819 C20.494852,7.55108514 19.5377257,8.50978359 18.3535149,8.50978359 C17.1693042,8.50978449 16.2121788,7.55108514 16.2121788,6.36492819 C16.2121779,5.17877123 17.1693042,4.22007279 18.3535149,4.22007279 Z" id="path8615" fill="url(#linearGradient-3)"></path>
                        <path d="M25.2707982,49.4023598 C37.743604,49.4023598 36.9647181,43.9845109 36.9647181,43.9845109 L36.9508134,38.371675 L25.0483217,38.371675 L25.0483217,36.6864312 L41.6784388,36.6864312 C41.6784388,36.6864312 49.6597822,37.5930736 49.6597822,24.9872157 C49.659787,12.3813637 42.6934877,12.8283939 42.6934877,12.8283939 L38.5359583,12.8283939 L38.5359583,18.6779982 C38.5359583,18.6779982 38.7600634,25.655742 31.6809018,25.655742 L19.8757426,25.655742 C19.8757426,25.655742 13.2431625,25.5483499 13.2431625,32.076385 L13.2431625,42.8703 C13.2431625,42.8703 12.2361539,49.4023598 25.2707982,49.4023598 Z M31.8338543,45.6279714 C30.6496432,45.6279714 29.6925182,44.6692732 29.6925182,43.4831159 C29.6925182,42.2969587 30.6496432,41.3382605 31.8338543,41.3382605 C33.0180655,41.3382605 33.9751905,42.2969587 33.9751905,43.4831159 C33.9751949,44.6692732 33.0180655,45.6279714 31.8338543,45.6279714 Z" id="path8620" fill="url(#linearGradient-4)"></path>
                    </g>
                </g>
                <g id="Group-10" transform="translate(151.000000, 240.000000)">
                    <g id="Polygon-Copy">
                        <use fill="black" fill-opacity="1" filter="url(#filter-6)" xlink:href="#path-5"></use>
                        <use fill="#FFFFFF" fill-rule="evenodd" xlink:href="#path-5"></use>
                    </g>
                    <g id="Group-3" transform="translate(35.000000, 33.000000)" fill="#8CC84B" fill-rule="nonzero">
                        <path d="M22.7546875,0.69921875 C24.1144531,-0.0791015625 25.8855469,-0.0826171875 27.2441406,0.69921875 C34.0791016,4.56132812 40.9162109,8.41738281 47.75,12.2818359 C49.0353516,13.0058594 49.8951172,14.4363281 49.8820312,15.9173828 L49.8820312,39.1533203 C49.8916016,40.6957031 48.946875,42.1603516 47.5908203,42.8679687 C40.7783203,46.7087891 33.9693359,50.5542969 27.1580078,54.3951172 C25.7701172,55.1886719 23.9634766,55.1275391 22.6189453,54.2689453 C20.5765625,53.0849609 18.5306641,51.9068359 16.4880859,50.7240234 C16.0707031,50.4751953 15.6001953,50.2771484 15.3054687,49.8724609 C15.5660156,49.5212891 16.0318359,49.4775391 16.4103516,49.3242187 C17.2628906,49.053125 18.0458984,48.6179687 18.8291016,48.1957031 C19.0271484,48.0601562 19.2689453,48.1121094 19.4587891,48.2333984 C21.2052734,49.2347656 22.9363281,50.2652344 24.6886719,51.2570312 C25.0625,51.4728516 25.4410156,51.1863281 25.7605469,51.0082031 C32.4457031,47.2298828 39.1390625,43.4658203 45.8230469,39.6863281 C46.0707031,39.5671875 46.2076172,39.3042969 46.1875,39.0330078 C46.1921875,31.3679687 46.1886719,23.7015625 46.1898437,16.0365234 C46.2181641,15.7287109 46.0400391,15.4457031 45.7617187,15.3197266 C38.9728516,11.4964844 32.1875,7.66738281 25.3998047,3.84316406 C25.1590884,3.67767441 24.8413956,3.67720882 24.6001953,3.84199219 C17.8125,7.66738281 11.0283203,11.5 4.240625,15.3230469 C3.96328125,15.4492187 3.77714844,15.7275391 3.81015625,16.0365234 C3.81132812,23.7015625 3.81015625,31.3679687 3.81015625,39.0341797 C3.78605014,39.3052851 3.93335372,39.5627156 4.17929687,39.6792969 C5.990625,40.7064453 7.80429687,41.7263672 9.61679687,42.75 C10.6378906,43.2996094 11.8916016,43.6261719 13.0166016,43.2050781 C14.009375,42.8490234 14.7052734,41.8359375 14.6863281,40.7818359 C14.6957031,33.1615234 14.6816406,25.5400391 14.6933594,17.9208984 C14.6685547,17.5826172 14.9894531,17.303125 15.3183594,17.3349609 C16.1886719,17.3291016 17.0601562,17.3232422 17.9304687,17.3373047 C18.29375,17.3291016 18.54375,17.6933594 18.4988281,18.0341797 C18.4953125,25.7027344 18.5082031,33.3714844 18.4929687,41.0400391 C18.4953125,43.0837891 17.6556641,45.3076172 15.7652344,46.3076172 C13.4363281,47.5140625 10.5578125,47.2582031 8.25703125,46.1013672 C6.26523437,45.1072266 4.36445312,43.9339844 2.40800781,42.8689453 C1.0484375,42.1652344 0.108398437,40.6947266 0.11796875,39.1535156 L0.11796875,15.9173828 C0.103710937,14.4056641 0.99765625,12.9492187 2.32304687,12.2357422 C9.134375,8.39179687 15.9445312,4.54492187 22.7546875,0.69921875 Z" id="Shape"></path>
                        <path d="M28.696875,16.7949219 C31.6675781,16.6037109 34.8478516,16.6816406 37.5210938,18.1451172 C39.5908203,19.2666016 40.7382813,21.6203125 40.7748047,23.9197266 C40.7169922,24.2298828 40.3927734,24.4009766 40.0966797,24.3796875 C39.2347656,24.3785156 38.3726563,24.3914063 37.5107422,24.3738281 C37.1451172,24.3878906 36.9326172,24.0507813 36.8867188,23.7275391 C36.6390625,22.6273438 36.0390625,21.5376953 35.0035156,21.0070313 C33.4138672,20.2111328 31.5707031,20.2511719 29.8373047,20.2677734 C28.571875,20.3349609 27.2111328,20.4445313 26.1390625,21.1886719 C25.3160156,21.7523438 25.0660156,22.8902344 25.3597656,23.8066406 C25.6367188,24.4646484 26.3962891,24.6769531 27.0177734,24.8726563 C30.5978516,25.8089844 34.3916016,25.7158203 37.9033203,26.9480469 C39.3572266,27.4503906 40.7794922,28.4269531 41.2771484,29.9492188 C41.928125,31.9894531 41.6427734,34.428125 40.1912109,36.0660156 C39.0140625,37.4138672 37.2996094,38.1474609 35.5896484,38.5458984 C33.3148438,39.053125 30.9541016,39.0660156 28.6439453,38.8408203 C26.4716797,38.5931641 24.2111328,38.0224609 22.5341797,36.5423828 C21.1001953,35.2972656 20.3998047,33.3572266 20.4693359,31.4847656 C20.4859375,31.1685547 20.8007813,30.9480469 21.1037109,30.9740234 C21.9716797,30.9669922 22.8396484,30.9646484 23.7076172,30.9751953 C24.0542969,30.9503906 24.3113281,31.25 24.3291016,31.5767578 C24.4892578,32.625 24.8832031,33.7251953 25.7972656,34.3466797 C27.5613281,35.4847656 29.7748047,35.4068359 31.7947266,35.4386719 C33.4681641,35.3644531 35.3466797,35.3419922 36.7123047,34.2359375 C37.4328125,33.6050781 37.6462891,32.5496094 37.4515625,31.6416016 C37.240625,30.875 36.4386719,30.5177734 35.75,30.2841797 C32.2158203,29.1662109 28.3796875,29.571875 24.8796875,28.3076172 C23.4587891,27.8054688 22.0847656,26.8560547 21.5388672,25.3962891 C20.7771484,23.3302734 21.1261719,20.7748047 22.7298828,19.1921875 C24.2935547,17.6179688 26.5507813,17.0117188 28.696875,16.7947266 L28.696875,16.7949219 Z" id="Shape"></path>
                    </g>
                </g>
                <g id="Group-7" transform="translate(210.000000, 139.000000)">
                    <g id="Polygon">
                        <use fill="black" fill-opacity="1" filter="url(#filter-8)" xlink:href="#path-7"></use>
                        <use fill="#FFFFFF" fill-rule="evenodd" xlink:href="#path-7"></use>
                    </g>
                    <g id="vue-logo" transform="translate(35.000000, 38.000000)" fill-rule="nonzero">
                        <polygon id="Shape" fill="#42B883" points="30.7517483 0.0874125874 25 10.0699301 19.2482517 0.0874125874 0.0699300699 0.0874125874 25 43.2692308 49.9300699 0.0874125874"></polygon>
                        <polygon id="Shape" fill="#35495E" points="30.7517483 0.0874125874 25 10.0699301 19.2482517 0.0874125874 10.0524476 0.0874125874 25 25.9965035 39.9475524 0.0874125874"></polygon>
                    </g>
                </g>
                <g id="Group-14" transform="translate(210.000000, 342.000000)">
                    <g id="Polygon">
                        <use fill="black" fill-opacity="1" filter="url(#filter-10)" xlink:href="#path-9"></use>
                        <use fill="#FFFFFF" fill-rule="evenodd" xlink:href="#path-9"></use>
                    </g>
                    <g id="react" transform="translate(35.000000, 38.000000)">
                        <g id="logo-(1)">
                            <ellipse id="Oval" fill="#00D8FF" fill-rule="nonzero" cx="25.0026902" cy="22.0122471" rx="4.65371058" ry="4.64713081"></ellipse>
                            <path d="M25.0026902,12.5636585 C31.2509276,12.5636585 37.0553803,13.4589586 41.4319109,14.9635074 C46.7050093,16.7762469 49.9471243,19.5241188 49.9471243,22.0122471 C49.9471243,24.6051436 46.511039,27.5242016 40.8485158,29.3977085 C36.5673469,30.8141631 30.9339518,31.5534689 25.0026902,31.5534689 C18.9216141,31.5534689 13.1631725,30.8594608 8.83478664,29.3820535 C3.35742115,27.5125299 0.0582560297,24.5555848 0.0582560297,22.0122471 C0.0582560297,19.5443128 3.15380334,16.8177466 8.35278293,15.0076934 C12.7456401,13.4784116 18.6934137,12.5636585 25.0026902,12.5636585 Z" id="Shape" stroke="#00D8FF" stroke-width="2"></path>
                            <path d="M16.7658627,17.315187 C19.8872913,11.9102238 23.5637291,7.33636585 27.0552876,4.30207206 C31.2621521,0.646209351 35.2655844,-0.785622349 37.424026,0.457330213 C39.6733766,1.75262055 40.4891466,6.18336015 39.2855288,12.0175857 C38.3755102,16.4285944 36.2025974,21.6710789 33.2395176,26.8019404 C30.201577,32.0623958 26.72282,36.6969285 23.278757,39.7031544 C18.9205937,43.5074155 14.7073284,44.8840378 12.5009276,43.6134806 C10.3600186,42.3805324 9.54118738,38.340705 10.5682746,32.9390766 C11.4360853,28.3750378 13.6139147,22.7730437 16.7658627,17.315187 Z" id="Shape" stroke="#00D8FF" stroke-width="2"></path>
                            <path d="M16.7737477,26.8156501 C13.643321,21.4158744 11.5111317,15.9509775 10.6223562,11.4149139 C9.55148423,5.94964653 10.3086271,1.77096192 12.4650278,0.524396665 C14.7121521,-0.774691629 18.9636364,0.732265614 23.4242115,4.68733363 C26.7967532,7.67753401 30.259833,12.1755253 33.2315399,17.3014773 C36.2782931,22.5568378 38.5618738,27.8810248 39.4500928,32.3619716 C40.5741187,38.032329 39.6642857,42.3648774 37.4600186,43.63914 C35.3211503,44.8756082 31.4072356,43.5665155 27.2337662,39.9802204 C23.7075139,36.9500951 19.9348794,32.2682268 16.7737477,26.8156501 Z" id="Shape" stroke="#00D8FF" stroke-width="2"></path>
                        </g>
                    </g>
                </g>
                <g id="Group-6" transform="translate(332.000000, 139.000000)">
                    <g id="Polygon-Copy">
                        <use fill="black" fill-opacity="1" filter="url(#filter-12)" xlink:href="#path-11"></use>
                        <use fill="#FFFFFF" fill-rule="evenodd" xlink:href="#path-11"></use>
                    </g>
                    <g id="mongodb_logo" transform="translate(44.000000, 25.000000)" fill-rule="nonzero">
                        <path d="M17.6713287,69.6573427 L15.8111888,69.020979 C15.8111888,69.020979 16.0559441,59.5734266 12.6293706,58.8881119 C10.3776224,56.2447552 12.972028,-52.2307692 21.1468531,58.5454545 C21.1468531,58.5454545 18.3566434,59.965035 17.8671329,62.3636364 C17.2797203,64.7132867 17.6713287,69.6573427 17.6713287,69.6573427 Z" id="Shape" fill="#FFFFFF"></path>
                        <path d="M17.6713287,69.6573427 L15.8111888,69.020979 C15.8111888,69.020979 16.0559441,59.5734266 12.6293706,58.8881119 C10.3776224,56.2447552 12.972028,-52.2307692 21.1468531,58.5454545 C21.1468531,58.5454545 18.3566434,59.965035 17.8671329,62.3636364 C17.2797203,64.7132867 17.6713287,69.6573427 17.6713287,69.6573427 Z" id="Shape" fill="#A6A385"></path>
                        <path d="M18.6503497,60.5524476 C18.6503497,60.5524476 34.8531469,49.8811189 31.0839161,27.7062937 C27.4125874,11.6013986 18.7972028,6.31468531 17.8671329,4.25874126 C16.8391608,2.79020979 15.8111888,0.293706294 15.8111888,0.293706294 L16.4965035,45.1328671 C16.4965035,45.1818182 15.0769231,58.8881119 18.6503497,60.5524476" id="Shape" fill="#FFFFFF"></path>
                        <path d="M18.6503497,60.5524476 C18.6503497,60.5524476 34.8531469,49.8811189 31.0839161,27.7062937 C27.4125874,11.6013986 18.7972028,6.31468531 17.8671329,4.25874126 C16.8391608,2.79020979 15.8111888,0.293706294 15.8111888,0.293706294 L16.4965035,45.1328671 C16.4965035,45.1818182 15.0769231,58.8881119 18.6503497,60.5524476" id="Shape" fill="#499D4A"></path>
                        <path d="M14.8321678,61.1398601 C14.8321678,61.1398601 -0.391608392,50.7622378 0.48951049,32.4545455 C1.37062937,14.1468531 12.0909091,5.18881119 14.1958042,3.52447552 C15.5664336,2.05594406 15.6153846,1.51748252 15.6643357,0.0979020979 C16.5944056,2.15384615 16.4475524,30.4965035 16.5454545,33.8251748 C17.034965,46.6993007 15.9090909,58.6923077 14.8321678,61.1398601 Z" id="Shape" fill="#FFFFFF"></path>
                        <path d="M14.8321678,61.1398601 C14.8321678,61.1398601 -0.391608392,50.7622378 0.48951049,32.4545455 C1.37062937,14.1468531 12.0909091,5.18881119 14.1958042,3.52447552 C15.5664336,2.05594406 15.6153846,1.51748252 15.6643357,0.0979020979 C16.5944056,2.15384615 16.4475524,30.4965035 16.5454545,33.8251748 C17.034965,46.6993007 15.9090909,58.6923077 14.8321678,61.1398601 Z" id="Shape" fill="#58AA50"></path>
                    </g>
                </g>
                <g id="Group-12" transform="translate(391.000000, 240.000000)">
                    <g id="Polygon-Copy">
                        <use fill="black" fill-opacity="1" filter="url(#filter-14)" xlink:href="#path-13"></use>
                        <use fill="#FFFFFF" fill-rule="evenodd" xlink:href="#path-13"></use>
                    </g>
                    <g id="flask" transform="translate(35.000000, 38.000000)" fill="#010101" fill-rule="nonzero">
                        <path d="M14.7153846,39.1076923 C12.8384615,37.6307692 10.8692308,36.2153846 9.46923077,34.2230769 C6.60199418,30.6836109 4.36666979,26.6761608 2.86153846,22.3769231 C1.94615385,19.6 1.63076923,16.6230769 0.453846154,13.9153846 C-0.776923077,11.9769231 0.661538462,9.85384615 2.76153846,9.23846154 C3.70769231,9.05384615 5.36923077,8.16153846 3.36153846,8.8 C1.56153846,10.1230769 1.38461538,7.6 3.23076923,7.43846154 C3.73360982,7.44006582 4.20196503,7.18306488 4.47071485,6.75806516 C4.73946468,6.33306544 4.77086523,5.79975494 4.55384615,5.34615385 C3.20769231,4.46923077 7.83846154,3.5 5.50769231,2.18461538 C3.07692308,-0.438461538 8.9,-0.938461538 7.46153846,2.03076923 C7.11538462,4.33846154 11.5307692,1.60769231 10.5384615,4.25384615 C11.5769231,5.52307692 14.4384615,4.54615385 14.3846154,6.32307692 C15.9230769,6.43076923 16.4230769,7.7 17.8461538,7.8 C19.3230769,8.46923077 21.9923077,8.99230769 22.4615385,10.6538462 C21,11.8153846 17.6076923,8.26153846 17.4461538,11.4692308 C17.8846154,16.2076923 17.7769231,21.0846154 19.5076923,25.6 C20.3307692,28.3307692 22.3153846,30.4846154 24.1230769,32.6076923 C25.9199076,34.6156988 28.1014396,36.2426927 30.5384615,37.3923077 C32.6374415,38.3567845 34.8537379,39.0421037 37.1307692,39.4307692 C38.0538462,38.7307692 39.6769231,36.1153846 41.1076923,37.2153846 C41.1769231,38.4538462 38.2615385,39.8076923 40.9692308,39.6692308 C42.5615385,39.1923077 43.6615385,40.9 44.9769231,39.3538462 C46.1538462,40.7923077 50,38.4461538 49.1076923,41.3692308 C47.9461538,42.1384615 46.2538462,41.6692308 45.0923077,42.7 C43.1769231,41.7384615 41.6461538,43.5538462 39.5230769,43.3307692 C37.1631778,43.7395389 34.7719441,43.9403098 32.3769231,43.9307692 C28.4615385,43.6076923 24.4461538,43.5 20.7153846,42.1153846 C18.5824711,41.403395 16.5620981,40.3906182 14.7153846,39.1076923 Z M18.0307692,40.5461538 C20.0216121,41.5470095 22.1458524,42.2568166 24.3384615,42.6538462 C27.9076923,43.1538462 31.5923077,43.9153846 35.1769231,43.2153846 C33.5538462,42.4461538 31.8769231,43.5 30.2692308,42.6923077 C28.3307692,43.1076923 26.2538462,42.5846154 24.2846154,42.3307692 C22.0461538,41.3307692 19.6307692,40.6461538 17.5307692,39.3538462 C14.9076923,38.4 18.8846154,40.5846154 19.5923077,40.7615385 C21.2307692,41.6923077 17.7923077,40.2846154 17.2846154,39.9 C15.9153846,39.1307692 15.7461538,39.2923077 17.1461538,40.0692308 C17.4307692,40.2384615 17.7076923,40.4076923 18.0076923,40.5538462 L18.0307692,40.5461538 Z M14.1230769,37.7846154 C16.1153846,38.5538462 14.1230769,36.3846154 13.2,36.5076923 C12.8,35.8076923 11.6615385,35.3615385 12.4307692,34.9692308 C10.9846154,35.4692308 10.8923077,33.0615385 10.2384615,33.4307692 C8.7,32.9461538 9.64615385,31.2384615 7.82307692,30.1846154 C7.69230769,29.0769231 6.03846154,28.1153846 5.51538462,26.4461538 C5.28461538,25.5923077 3.66153846,23.1384615 4.65384615,25.4230769 C5.5,27.6230769 6.96153846,29.5076923 8.24615385,31.3846154 C9.21538462,33.1769231 10.3538462,35.0461538 12.0923077,36.1615385 C12.6846154,36.7307692 13.2615385,37.6 14.0923077,37.7846154 L14.1230769,37.7846154 Z M8.39230769,31.4923077 C8.46153846,31.1923077 8.75384615,32.1461538 8.39230769,31.4923077 Z M16.5,38.6692308 C16.9230769,38.4692308 15.8692308,38.4153846 16.5,38.6692308 Z M17.5769231,39.0615385 C17.4692308,38.5153846 17.0846154,39.3692308 17.5769231,39.0615385 Z M21.2384615,40.9461538 C21.6384615,40.3384615 20,40.7 21.2461538,40.9153846 L21.2384615,40.9461538 Z M16.7923077,37.8692308 C17.8,37.1692308 15.5076923,37.8076923 16.8,37.8153846 L16.7923077,37.8692308 Z M17.8076923,38.3769231 C17.7846154,37.9769231 17.4538462,38.4769231 17.8153846,38.3230769 L17.8076923,38.3769231 Z M22.8769231,41.5384615 C23.6923077,42.0538462 27.6307692,42.6615385 25.1846154,41.7461538 C24.7538462,41.7846154 20.5923077,40.5153846 22.8846154,41.4846154 L22.8769231,41.5384615 Z M19.1769231,37.7923077 C20.0615385,37.4769231 17.7538462,37.4769231 19.1769231,37.8076923 L19.1769231,37.7923077 Z M13.8461538,34.1769231 C14.8,34.9461538 17.6923077,34.2692308 15.3076923,33.7384615 C14.2230769,33.1615385 11.7692308,32.7615385 13.4384615,34.0846154 L13.8461538,34.1769231 Z M20.4923077,38.2307692 C20.9230769,37.5538462 18.8538462,37.8461538 20.5230769,38.2307692 L20.4923077,38.2307692 Z M18.4692308,36.6230769 C20.7769231,37.2846154 16.5076923,35.1461538 17.8923077,36.3769231 L18.2,36.5153846 L18.4692308,36.6230769 Z M22.5153846,38.9307692 C24.7307692,38.9307692 20.5153846,38.6230769 22.5153846,38.9307692 Z M13.2307692,32.6384615 C14.5076923,32.5538462 11.4923077,32.0769231 13.2384615,32.6307692 L13.2307692,32.6384615 Z M9.00769231,29.9076923 C8.85384615,29.2923077 7.62307692,28.8076923 9.00769231,29.9 L9.00769231,29.9076923 Z M27.0230769,41.1846154 C26.9846154,40.7769231 26.6307692,41.3307692 27.0076923,41.1923077 L27.0230769,41.1846154 Z M19.5076923,36.3153846 C19.6153846,35.8076923 18.4076923,36.1538462 19.4923077,36.3153846 L19.5076923,36.3153846 Z M14.3615385,33.0538462 C15.2923077,32.9538462 12.8307692,32.4153846 14.3461538,33.0538462 L14.3615385,33.0538462 Z M23.0615385,38.4384615 C24.5230769,37.8769231 21.6153846,38.1769231 23.0769231,38.4615385 L23.0615385,38.4384615 Z M18.5384615,35.3615385 C20.2384615,35.5769231 16.5153846,34.2076923 18.1692308,35.2384615 L18.5384615,35.3615385 Z M24.4384615,38.9923077 C26.0230769,38.0461538 25.5,41.2076923 27.1307692,39.2615385 C28.7384615,38.0923077 25.7461538,40.7076923 27.7230769,39.4692308 C29.1538462,38.5153846 31.2692308,39.9230769 32.6,40.3846154 C33.5615385,40.3384615 34.4923077,41.2153846 35.4769231,40.6846154 C37.3692308,40.1769231 31.7769231,39.9153846 33.2384615,39.0230769 C31.5076923,39.5307692 30.2230769,38.4230769 29.3923077,37.3153846 C27.4461538,36.8692308 25.2,35.8692308 24.2307692,34.1538462 C23.8,33.5 24.7692308,34.2692308 23.8461538,33.2 C22.8230085,32.1736622 21.9642042,30.9957251 21.3,29.7076923 C20.3615385,29.2076923 20.2538462,27.7307692 20.1538462,29.6615385 C20.1538462,28.4461538 19.0230769,27.6307692 18.7384615,27.9692308 C18.7384615,26.8 19.9615385,27.3846154 19.1,26.5153846 C18.9153846,25.3 18.3307692,24.0384615 18.1230769,22.6692308 C17.8384615,22.0076923 18.0846154,20.5923077 17.1538462,22.0923077 C16.8153846,23.6692308 17.0384615,20.1538462 17.5692308,21.3230769 C18.2615385,20.1384615 17.3230769,20.2769231 17.2846154,20.4384615 C17.7384615,19.4384615 17.5692308,18.0230769 17.1692308,18.5615385 C17.4076923,17.5 17.5461538,14.6615385 16.8076923,15.1615385 C17.2538462,14.0538462 17.6538462,10.0923077 15.7153846,11.6 C14.7537812,11.637938 13.8062005,11.8435942 12.9153846,12.2076923 C14.9384615,13.3230769 12.7153846,12.6076923 11.8923077,12.4307692 C11.7846154,13.4615385 10.9692308,13.0153846 9.95384615,13.0230769 C11.5769231,13.2230769 9.18461538,14.6846154 8.23076923,14.1153846 C7.01538462,14.6923077 9.27692308,16.1384615 8.23076923,16.5846154 C8.35384615,17.2615385 6.37692308,16.3384615 6.53076923,17.9 C5.35384615,17.4076923 6.36923077,19.7461538 6.95384615,18.9538462 C8.95384615,19.4923077 8.36153846,20.7307692 8.41538462,21.9 C8.09230769,22.5846154 6.80769231,20.2923077 8.13076923,20.3615385 C7.08461538,18.6615385 6.97692308,19.7461538 6.10769231,20.5384615 C5.90769231,20.5923077 8.32307692,21.6615385 6.80769231,22.1846154 C8.13846154,22.3923077 8.17692308,23.5538462 8.45384615,24.2923077 C9.22307692,25.1307692 9.09230769,23.3692308 10.0538462,24.3769231 C9.44615385,23.4846154 6.83846154,21.8615385 8.93846154,22.3769231 C8.93846154,21.4769231 8.56153846,20.7538462 9.2,20.7692308 C9.83846154,19.6153846 8.53076923,23.6153846 9.96923077,22.1461538 C10.3692308,21.9692308 10.4615385,20.9923077 11.1769231,22.2384615 C12.2153846,23.2615385 11.5538462,24 10.0846154,23.0615385 C10.3461538,23.9461538 12.0461538,24.2692308 11.7230769,25.6538462 C12.0615385,26.8769231 12.5307692,26.4230769 12.9461538,26.3538462 C13.2692308,27.5384615 13.4538462,26.6692308 13.4692308,26.1 C14.9846154,26.4692308 14.6153846,27.3461538 15.1,27.9538462 C16.1230769,28.4153846 13.6384615,24.8307692 15.3923077,26.8769231 C17.2384615,28.5384615 16.0846154,29.2307692 14.4307692,28.9692308 C15.4769231,28.8846154 15.8153846,30.3846154 17.1230769,30.3307692 C18.3153846,30.9 19.1230769,33.0769231 17.0692308,32.1692308 C16.3461538,31.5307692 13.8461538,30.7307692 15.8846154,31.9615385 C17.6844653,32.6945384 19.4388778,33.5344987 21.1384615,34.4769231 C22.4538462,35.4153846 23.0230769,36.4923077 23.5230769,36.7 C22.4153846,37.2307692 20.1923077,36.2769231 21.8461538,35.9846154 C20.8153846,35.8 19.6538462,35.2769231 20.6461538,36.5615385 C21.4846154,37.2615385 23.6230769,37.1846154 24,37.2692308 C23.6769231,37.9846154 23.1153846,38.0384615 24,38.0923077 C23,38.6230769 24.3230769,38.7076923 24.4153846,39.0076923 L24.4384615,38.9923077 Z M22.3846154,33.2538462 C21.7769231,32.6153846 21.6153846,31.4307692 22.2769231,32.4846154 C22.6153846,32.6230769 23.3538462,34.4307692 22.3846154,33.2538462 Z M21.4307692,31.7 C21.4,30.7384615 21.6461538,32.4384615 21.4230769,31.7 L21.4307692,31.7 Z M12.7692308,25.2846154 C13.2153846,25.1692308 12.9846154,26.0538462 12.7615385,25.2846154 L12.7692308,25.2846154 Z M19.1384615,28.7384615 C19.4076923,27.7 19.4538462,29.6076923 19.1307692,28.7384615 L19.1384615,28.7384615 Z M18.4615385,26.8461538 C17.7384615,25.2230769 18.9769231,25.9615385 18.6230769,27.1153846 L18.4615385,26.8461538 Z M11.8,22.4076923 C11.4769231,21.8769231 10.9384615,20.3153846 11.1153846,19.8384615 C11.2692308,20.6076923 12.7615385,23.1769231 11.8846154,20.9 C10.8692308,18.9923077 13.0923077,21.5230769 13.3230769,21.9923077 C13.4307692,22.4692308 12.7,21.8615385 13.1923077,22.9769231 C12.3076923,21.7153846 12.6615385,23.6769231 11.8384615,22.4076923 L11.8,22.4076923 Z M9.73846154,20.9923077 C9.86153846,19.7538462 10.2461538,21.8384615 9.77692308,20.9846154 L9.73846154,20.9923077 Z M10.6615385,21.3076923 C11.1461538,20.3769231 11.4538462,22.6076923 10.7,21.3076923 L10.6615385,21.3076923 Z M8.46153846,19.5846154 C7.69230769,18.8153846 7.13846154,18.1230769 8.46153846,19.1153846 C8.98461538,19.1153846 7.3,17.5230769 8.58461538,18.6 C10,18.8461538 9.30769231,20.8153846 8.46153846,19.5846154 Z M9.63076923,19.5846154 C10.0923077,19.1153846 9.88461538,19.9846154 9.64615385,19.5538462 L9.63076923,19.5846154 Z M10.3538462,19.8153846 C9.69230769,18.5230769 11.1846154,20.3153846 10.3692308,19.7846154 L10.3538462,19.8153846 Z M8.92307692,18.4461538 C6.69230769,16.4615385 11.7230769,19.4846154 9.28461538,18.8153846 L8.92307692,18.4461538 Z M15.3076923,22.1538462 C14.3461538,21.5769231 15.0538462,18.0846154 15.3846154,20.4692308 C16.3230769,20.1692308 15.3307692,21.7 16.0307692,21.6846154 C15.9307692,22.6307692 15.6153846,22.9769231 15.3153846,22.1230769 L15.3076923,22.1538462 Z M17.2846154,23.0923077 C17.3769231,22.6692308 17.2769231,23.6461538 17.2692308,23.1153846 L17.2846154,23.0923077 Z M9.39230769,17.7076923 C7.96153846,15.7307692 13.5538462,19.7076923 10.3076923,18.2076923 C9.94264617,18.2205531 9.59359759,18.057473 9.36923077,17.7692308 L9.39230769,17.7076923 Z M13.9384615,20.1153846 C13.8,18.4538462 14.2384615,20.3923077 13.9384615,20.1153846 Z M17.3923077,22.3307692 C17.6384615,21.4461538 17.3923077,23.0153846 17.3692308,22.3923077 L17.3923077,22.3307692 Z M9.61538462,16.9461538 C10.4692308,16.7615385 13.1384615,18.4384615 10.6846154,17.4230769 C10.3846154,17.1923077 9.80769231,17.3461538 9.59230769,17.0153846 L9.61538462,16.9461538 Z M16.9230769,20.6538462 C17.0153846,18.9538462 17.4307692,19.6384615 16.9230769,20.9 L16.9230769,20.6538462 Z M10.2538462,16.4230769 C10.6,15.9153846 9.33076923,14.1153846 10.4384615,15.7846154 C10.9153846,16.1615385 11.8153846,16.4153846 11.0230769,16.5538462 C12.2461538,17.6769231 10.6846154,16.8692308 10.2230769,16.4230769 L10.2538462,16.4230769 Z M16.5615385,20.1230769 C16.7692308,18.1846154 16.7461538,21.2538462 16.5307692,20.1230769 L16.5615385,20.1230769 Z M9.53076923,14.6307692 C9.76923077,14.5230769 9.63846154,14.9846154 9.5,14.6307692 L9.53076923,14.6307692 Z M11.1769231,15.6076923 C11.5384615,14.7230769 11.9307692,16.5769231 11.1461538,15.6153846 L11.1769231,15.6076923 Z M15.7923077,18.1923077 C15.7846154,17.8538462 15.8769231,18.6923077 15.7846154,18.1923077 L15.7923077,18.1923077 Z M15.1230769,16.5769231 C15.0153846,15.9230769 15.4923077,17.4 15.1230769,16.5769231 Z M15.7692308,15.5307692 C15.3307692,14.7615385 16.3307692,12.1 16.4384615,13.7461538 C15.9692308,15.0307692 16.3076923,15.7461538 16.6307692,14.0230769 C17.2307692,12.6692308 16.5,16.6923077 15.7692308,15.5615385 L15.7692308,15.5307692 Z M16.4307692,11.5846154 C16.6230769,11.3230769 16.4692308,11.8461538 16.4307692,11.5615385 L16.4307692,11.5846154 Z M15.3230769,33.3538462 C15.0615385,33.1076923 15.3846154,33.5 15.3230769,33.3307692 L15.3230769,33.3538462 Z M17.6307692,34.5076923 C18.9,34.8307692 18.8923077,34.3076923 17.7461538,34.1538462 C17.1307692,33.5846154 15.1923077,32.9769231 16.9230769,34.0846154 C17.1033154,34.3028126 17.3532453,34.4522272 17.6307692,34.5076923 Z M13.0769231,31.5 C13.7769231,32.0230769 15.7076923,32.9769231 14.0692308,31.7 C14.6230769,31.0615385 13.0153846,30.7230769 13.5461538,30.2923077 C12.1923077,29.4615385 12.4769231,29.5230769 13.4230769,29.5615385 C11.7923077,28.8307692 13.6615385,28.8923077 13.5692308,28.5153846 C12.9384615,28.3923077 10.4538462,27.4076923 11.9153846,28.5923077 C10.4230769,27.8230769 11.5615385,28.8769231 11.1461538,28.7615385 C9.60769231,28.3461538 12.5,29.9230769 10.9076923,29.5307692 C11.7846154,30.2230769 13.2615385,31.3 11.2769231,30.3 C11.0153846,30.6461538 12.6923077,31.1923077 13.0769231,31.5 Z M15.4538462,32.8692308 C18.3769231,33.8 14.0692308,31.7307692 15.4846154,32.8692308 L15.4538462,32.8692308 Z M28.9461538,40.7769231 C29.6153846,40.1307692 28.9461538,41.8076923 30.0538462,40.6153846 C30.0538462,39.7615385 30.0538462,39.2615385 28.8153846,40.2923077 C28.4846154,40.4769231 28.3307692,41.2615385 28.9461538,40.7692308 L28.9461538,40.7769231 Z M10.3846154,29.1692308 C9.88461538,28.3461538 8.60769231,28.4230769 10.3769231,29.1692308 L10.3846154,29.1692308 Z M17.9923077,33.7846154 C18.7615385,34.4461538 21.4076923,34.2692308 18.8923077,33.8692308 C18.5153846,33.2846154 16.5307692,33.4230769 17.9923077,33.7538462 L17.9923077,33.7846154 Z M30.8384615,41.8461538 C30.8307692,41.5384615 30.3307692,41.9615385 30.8230769,41.8461538 L30.8384615,41.8461538 Z M30.8384615,41.4153846 C32.1076923,40.0769231 29.6153846,41.4923077 30.8384615,41.4153846 Z M5.75384615,25.5384615 C4.67692308,24 5.08461538,23.3076923 4.04615385,22.0461538 C3.84615385,21.0846154 2.25384615,18.8846154 3.22307692,21.1923077 C4.1,22.5692308 4.36153846,24.6615385 5.75384615,25.5384615 Z M32.2076923,41.6923077 C33.3769231,40.6846154 31.4692308,41.4769231 32.2076923,41.6846154 L32.2076923,41.6923077 Z M31.8384615,41.1923077 C32.9692308,40.4615385 31.5769231,40.5769231 31.6307692,41.2615385 L31.8384615,41.1923077 Z M33.6153846,41.7076923 C35.0615385,40.6615385 32.7384615,41.5076923 33.3153846,41.9076923 L33.6153846,41.7076923 Z M35.9076923,43.3230769 C36.7153846,42.7923077 34.9692308,43.1538462 35.9307692,43.3230769 L35.9076923,43.3230769 Z M9.36923077,26.2307692 C10.4307692,26.4692308 13.6076923,28.8461538 11.7307692,26.3923077 C10.7692308,26.1076923 11.3461538,23.7615385 10.3692308,24.1769231 C11.0230769,25.2769231 10.9076923,25.7153846 9.53076923,25.0538462 C7.79230769,24.2076923 8.55384615,25.4769231 8.89230769,25.8230769 C8.43076923,25.9307692 9.5,26.2230769 9.36923077,26.2307692 Z M4.53846154,22.3846154 C4.73076923,21.6153846 2.79230769,18.0615385 3.62307692,20.6153846 C3.92307692,21.1923077 3.89230769,22.1923077 4.53846154,22.4153846 L4.53846154,22.3846154 Z M14.7538462,28.2 C14.7538462,27.3461538 13.2692308,27.8615385 14.7538462,28.1923077 L14.7538462,28.2 Z M26.4076923,35.5461538 C26.1846154,34.9769231 25.5307692,35.5461538 26.4076923,35.5461538 Z M26.9692308,35.9538462 C26.9230769,35.6384615 26.6461538,36.0153846 26.9692308,35.9538462 Z M31.5846154,38.8615385 C32.0384615,38.5384615 31.0384615,38.8230769 31.5923077,38.8846154 L31.5846154,38.8615385 Z M37.6923077,40.7307692 C38.7384615,40.5153846 41.1307692,41.2615385 41.5384615,40.4538462 C40.2615385,40.4538462 37.1307692,39.5538462 36.9769231,40.6615385 L37.2538462,40.7076923 L37.7076923,40.7076923 L37.6923077,40.7307692 Z M4.83076923,19.2615385 C4.84615385,18.7384615 3.46923077,18.7923077 4.83076923,19.2461538 L4.83076923,19.2615385 Z M11.0230769,23.0846154 C11.2692308,22.8615385 10.4230769,22.9230769 11.0230769,23.0923077 L11.0230769,23.0846154 Z M2.03846154,16.7461538 C2.02307692,16.1923077 1.76923077,16.9615385 2.06923077,16.7461538 L2.03846154,16.7461538 Z M2.49230769,16.4076923 C2.44615385,15.7538462 2.13076923,16.4923077 2.52307692,16.4076923 L2.49230769,16.4076923 Z M4.99230769,17.9 C6.05384615,17.4846154 3.06153846,17.0384615 4.77692308,17.8230769 L4.99230769,17.9 Z M38.5,38.5923077 C39.2307692,37.9769231 37.6923077,38.4076923 38.5307692,38.6 L38.5,38.5923077 Z M42.5461538,40.6923077 C42.8461538,39.8923077 41.8923077,40.8 42.5769231,40.6923077 L42.5461538,40.6923077 Z M1.71538462,14.1923077 C1.53846154,13.1076923 1.53846154,11.1923077 3.38461538,11.8307692 C0.938461538,12.3153846 5.07692308,14.8692308 4.55384615,12.8538462 C5.58461538,12.9076923 6.56153846,12.2461538 6.02307692,13.2461538 C8.04615385,13.0230769 9.45384615,11.2692308 11.4076923,11.5153846 C13.0500003,11.3801245 14.6710837,11.0548753 16.2384615,10.5461538 C17.5846154,10.4461538 18.8846154,9.00769231 18.1461538,8.13846154 C16.2000409,8.02627495 14.2478005,8.186804 12.3461538,8.61538462 C10.0923077,9.08461538 8.04615385,9.97692308 5.76923077,10.3538462 C3.49230769,10.7307692 6.21538462,11.1923077 5.57692308,11.2923077 C4.42307692,11.6923077 6.92307692,11.9615385 5.43076923,12.3846154 C4.48461538,12.2076923 3.5,11.8769231 3.89230769,10.8846154 C1.76923077,11.1615385 -0.1,12.0384615 1.58461538,14.2 L1.71538462,14.2 L1.71538462,14.1923077 Z M6.83076923,11.5846154 C7.33076923,9.75384615 9.5,13.1230769 7.64615385,11.8307692 C7.41346625,11.6532116 7.12199578,11.57072 6.83076923,11.6 L6.83076923,11.5846154 Z M7.83846154,10.7076923 C7.9,9.86153846 9.92307692,11.1538462 8.16923077,11.0076923 L7.83846154,10.7076923 Z M9.08461538,10.2076923 C9.54615385,9.65384615 9.23076923,10.6923077 9.09230769,10.2230769 L9.08461538,10.2076923 Z M9.40769231,9.99230769 C10.1769231,9.07692308 13.7076923,9.40769231 11.1153846,9.9 C10.4230769,9.39230769 9.89230769,10.2230769 9.40769231,10.0076923 L9.40769231,9.99230769 Z M14.0230769,9.27692308 C13.9076923,6.80769231 16.3230769,10.1769231 14.0230769,9.29230769 L14.0230769,9.27692308 Z M15.3307692,9.27692308 C15.8076923,8.02307692 17.1923077,8.77692308 15.5538462,9.02307692 C15.5923077,9.16923077 15.5076923,9.65384615 15.3384615,9.28461538 L15.3307692,9.27692308 Z M4.76153846,15.9461538 C6.19230769,15.0692308 3.22307692,15.1769231 4.76153846,15.9461538 Z M40.6692308,37.5384615 C40.7692308,36.6923077 40.1153846,37.6076923 40.6692308,37.5384615 Z M46.1538462,40.7461538 C47.3,40.7461538 49.6153846,40.3923077 47.1307692,40.3923077 C46.7384615,40.4538462 44.8230769,40.4384615 46.1538462,40.7461538 Z M6.75384615,15.7230769 C7.67692308,15.6615385 8.2,14.7 6.57692308,14.7538462 C4.05384615,14.4923077 8.8,15.6153846 6.25384615,15.2923077 C5.90769231,15.5307692 6.73076923,15.8076923 6.75384615,15.7230769 Z M8.53846154,13.5615385 C8.93846154,13.0615385 7.97692308,13.4230769 8.53076923,13.5615385 L8.53846154,13.5615385 Z M5.46153846,8.41538462 C7.11538462,7.85384615 9.36923077,7.22307692 10.1538462,8.69230769 C9.38461538,7.73846154 9.83076923,6.8 10.5846154,8.19230769 C11.6461538,9.60769231 12.1769231,7.54615385 11.4846154,7.07692308 C12.2538462,8.05384615 13.1615385,8.51538462 12.0076923,7.13846154 C13.2615385,5.6 9.5,7.33846154 8.64615385,7.31538462 C8.22307692,7.5 4.39230769,8.29230769 5.45384615,8.41538462 L5.46153846,8.41538462 Z M6.42307692,6.57692308 C7.36153846,5.86923077 9.67692308,7 8.19230769,5.86923077 C8.04615385,5.72307692 4.93846154,6.70769231 6.42307692,6.57692308 Z M9.85384615,6.71538462 C10.9538462,6.71538462 9.37692308,5.23076923 10.6923077,5.94615385 C10.4769231,5.23846154 9.15384615,5.10769231 8.52307692,4.83076923 C8.16153846,5.43076923 9.23076923,6.70769231 9.85384615,6.7 L9.85384615,6.71538462 Z M8.46153846,3.92307692 C10.2384615,3.68461538 8.00769231,3.15384615 8.1,3.92307692 L8.46153846,3.92307692 Z M5.80769231,1.86923077 C4.55384615,0.238461538 8.16153846,2.14615385 6.92307692,0.423076923 C5.82307692,-0.415384615 4.79230769,1.39230769 5.80769231,1.86923077 Z M21.8615385,10.5153846 C22.4384615,9.5 19.4923077,9.14615385 21.4769231,10.1538462 C21.6538462,10.2153846 21.6153846,10.5846154 21.8615385,10.5153846 Z" id="Shape"></path>
                    </g>
                </g>
                <g id="Group-15" transform="translate(332.000000, 342.000000)">
                    <g id="Polygon-Copy">
                        <use fill="black" fill-opacity="1" filter="url(#filter-16)" xlink:href="#path-15"></use>
                        <use fill="#FFFFFF" fill-rule="evenodd" xlink:href="#path-15"></use>
                    </g>
                    <g id="gulp" transform="translate(44.000000, 25.000000)" fill-rule="nonzero">
                        <path d="M24.3985866,67.8664841 L25.0697703,56.6825618 L26.9230389,53.5189576 C26.9230389,53.5189576 22.7049823,55.24447 15.6432686,55.24447 C8.5814311,55.24447 4.42731449,53.5508657 4.42731449,53.5508657 L6.50431095,57.0018905 L7.2390636,67.8664841 C7.2390636,69.0312544 11.0802827,69.9753887 15.8188869,69.9753887 C20.5572438,69.9753887 24.3985866,69.0312544 24.3985866,67.8664841 M22.2813958,15.6391873 L23.6901767,10.0707244 L31.4917138,1.86167845 L29.4354947,0.110318021 L21.1759894,8.855 L19.540265,15.5078445 C18.3091844,15.4665948 17.0774958,15.4461031 15.8457244,15.4463781 C7.1469258,15.4463781 0.0951060071,16.4377562 0.0951060071,17.6604064 C0.0951060071,18.8831802 7.1469258,19.8744346 15.8457244,19.8744346 C24.5443993,19.8744346 31.5960954,18.8831802 31.5960954,17.6604064 C31.5960954,16.760053 27.7715724,15.985106 22.2813958,15.6391873" id="Shape" fill="#D34A47"></path>
                        <path d="M21.4619258,18.7576502 C21.4619258,18.7576502 21.1568198,18.8260424 20.259311,18.8298763 C19.3615548,18.8335866 18.7241343,18.8240636 18.4702297,18.5927915 C18.4019611,18.5307067 18.3646113,18.4074028 18.3649823,18.3239223 C18.3657244,18.165 18.4785159,18.0713781 18.6222261,18.0127562 L18.7581449,18.2259717 C18.6990283,18.2463781 18.665265,18.2704947 18.6651413,18.2962191 C18.6646466,18.4169258 19.5830565,18.4995406 20.28553,18.490636 C20.9881272,18.4819788 21.8370318,18.4240989 21.8377739,18.3051237 C21.8377739,18.2691343 21.7735866,18.2352473 21.6619081,18.2085336 L21.7972085,17.9968021 C21.979258,18.0533216 22.1381802,18.1625265 22.1378092,18.3515018 C22.1360777,18.6728092 21.7272085,18.7216608 21.4619258,18.7576502" id="Shape" fill="#FFFFFF"></path>
                        <path d="M31.4763781,1.87787986 C31.6725265,1.65130742 31.374841,1.07176678 30.8115018,0.583621908 C30.2479152,0.0957243816 29.6320141,-0.116254417 29.4354947,0.110318021 C29.2392226,0.336890459 29.5370318,0.916431095 30.1006184,1.40432862 C30.6639576,1.89234982 31.280106,2.10457597 31.4763781,1.87787986 M24.0233569,40.5486749 C23.8384629,38.769735 27.914417,36.1933392 26.8683746,36.1108481 C24.6165018,36.2395936 23.4957597,38.7498233 22.3627739,41.3789046 C21.9475972,42.3424558 20.5269435,46.4511837 19.5951767,45.9453534 C18.6636572,45.4397703 20.8028622,42.0610954 21.4024382,40.0545936 C20.7106007,40.5619081 18.1734099,42.5331625 17.5195406,40.6870671 C16.4683039,41.5798763 14.2219965,42.0635689 14.4754064,39.7183216 C13.9161484,40.7089576 12.6609717,42.0920141 11.154364,41.5172968 C9.17581272,40.7627562 12.3008304,34.460159 13.0778799,34.7781272 C13.855053,35.0959717 12.9210601,36.5317138 12.6764311,37.0892403 C12.1384452,38.3162191 11.5169788,39.8586926 11.9321555,40.1744346 C12.6434099,40.7153887 14.5789223,38.1279859 14.6219611,38.0710954 C14.9839576,37.5928445 16.0152827,34.4639929 16.8465018,34.8232686 C17.6777208,35.1825442 14.7732155,39.3136572 15.8592049,40.1334982 C16.0782332,40.2989753 16.9743816,40.0314664 17.5195406,39.4416608 C17.8722615,39.0601237 17.7509364,38.215053 18.9267138,35.4110954 C20.1024912,32.6072615 21.1503887,29.115424 21.9567491,29.3814488 C22.7631095,29.6473498 22.0984806,31.439523 21.8092049,32.1076148 C20.4517491,35.2432686 18.1043993,40.4236396 19.2114134,40.0314664 C20.3184276,39.639417 20.8948763,39.6164134 21.9788869,38.3478799 C23.0628975,37.0793463 23.0129329,34.9898587 23.7354417,35.034258 C24.4581979,35.0787809 24.3368728,35.7487279 24.1616254,36.2588869 C24.8727562,35.445106 27.5325088,33.7312191 28.174629,35.4286572 C28.9352297,37.4382509 24.3692756,40.3410247 25.5077032,40.1929859 C26.6176855,40.0486572 28.4159187,38.909735 29.1836926,37.8742049 L31.2970495,18.874523 C31.2970495,18.874523 29.1704594,20.634417 15.6411661,20.634417 C2.11174912,20.634417 0.205176678,18.9111307 0.205176678,18.9111307 L2.00439929,36.2533216 C2.95941696,33.5390283 5.22724382,28.0488516 8.80194346,28.2331272 C10.4280212,28.3169788 12.5987633,31.4480565 10.739311,31.5541696 C9.95224382,31.5989399 9.87234982,29.9912898 8.94033569,29.7551943 C8.26779152,29.5847703 7.33144876,30.1315371 6.72630742,30.7239399 C5.51948763,31.9050353 2.92392226,36.5649823 3.26687279,38.8882155 C3.70381625,41.850106 7.35408127,37.8589929 7.97171378,36.6740636 C8.40667845,35.8393816 8.70053004,33.3663781 9.65183746,33.6258481 C10.6032686,33.885318 9.56885159,36.4374735 8.87924028,38.6939223 C8.10454064,41.2276502 7.69727915,43.9003887 6.72630742,43.5929329 C5.75521201,43.2857244 7.33701413,40.0147703 7.27975265,39.4416608 C6.3670318,40.2837633 4.6855477,42.4156714 2.53434629,41.360477 L3.65174912,52.129841 C3.65174912,52.129841 6.62155477,54.4763251 15.5678269,54.4763251 C24.5140989,54.4763251 27.5938516,52.1664488 27.5938516,52.1664488 L28.9813604,39.6929682 C27.8461484,40.7983746 24.2533922,42.7613428 24.0233569,40.5486749" id="Shape" fill="#D34A47"></path>
                    </g>
                </g>
                <g id="Group-13" transform="translate(90.000000, 342.000000)">
                    <g id="Polygon">
                        <use fill="black" fill-opacity="1" filter="url(#filter-18)" xlink:href="#path-17"></use>
                        <use fill="#FFFFFF" fill-rule="evenodd" xlink:href="#path-17"></use>
                    </g>
                    <g id="webpack-icon" transform="translate(35.000000, 32.000000)" fill-rule="nonzero">
                        <polygon id="Shape" fill="#FFFFFF" points="25 0 50 14.1509434 50 42.4528302 25 56.6037736 0 42.4528302 0 14.1509434"></polygon>
                        <path d="M45.6096446,41.4701715 L25.866507,52.6205451 L25.866507,43.9359835 L38.1676008,37.1797529 L45.6096446,41.4701715 Z M46.9601677,40.2490524 L46.9601677,16.9299202 L39.735341,21.0930406 L39.735341,36.0812172 L46.9601677,40.2490524 Z M4.39035545,41.4701715 L24.133493,52.6205451 L24.133493,43.9359835 L11.8323992,37.1797529 L4.39035545,41.4701715 Z M3.03983229,40.2490524 L3.03983229,16.9299202 L10.264659,21.0930406 L10.264659,36.0812172 L3.03983229,40.2490524 Z M3.88508979,15.4212016 L24.133493,3.98322851 L24.133493,12.3801906 L11.1618597,19.5041713 L11.0626954,19.5607483 L3.88508979,15.4212016 Z M46.1149102,15.4212016 L25.866507,3.98322851 L25.866507,12.3801906 L38.8381403,19.5041713 L38.9373046,19.5607483 L46.1149102,15.4212016 Z" id="Shape" fill="#8ED6FB"></path>
                        <path d="M24.1861987,41.9287212 L12.0545073,35.2641242 L12.0545073,22.0575626 L24.1861987,29.0570402 L24.1861987,41.9287212 M25.9186231,41.9287212 L38.0503145,35.2641242 L38.0503145,22.0575626 L25.9186231,29.0570402 L25.9186231,41.9287212 M12.8758748,20.5293747 L25.0547712,13.836478 L37.2336675,20.5293747 L25.0547712,27.5571522 L12.8758748,20.5293747" id="Shape" fill="#1C78C0"></path>
                    </g>
                </g>
                <g id="Group-16" transform="translate(272.000000, 445.000000)">
                    <g id="Polygon-Copy">
                        <use fill="black" fill-opacity="1" filter="url(#filter-20)" xlink:href="#path-19"></use>
                        <use fill="#FFFFFF" fill-rule="evenodd" xlink:href="#path-19"></use>
                    </g>
                    <g id="redux" transform="translate(35.000000, 36.000000)" fill="#764ABC" fill-rule="nonzero">
                        <path d="M34.6447266,33.1509766 C36.4898438,32.9599609 37.8896484,31.3693359 37.8259766,29.4603516 C37.7625,27.5515625 36.1716797,26.0244141 34.2628906,26.0244141 L34.1357422,26.0244141 C32.1630859,26.0880859 30.6361328,27.7423828 30.6998047,29.7148438 C30.7634766,30.6693359 31.1451172,31.4964844 31.7177734,32.0691406 C29.5544922,36.3324219 26.2458984,39.4501953 21.2830078,42.0589844 C17.9107422,43.840625 14.4113281,44.4769531 10.9119141,44.0316406 C8.04863281,43.6498047 5.82167969,42.3773438 4.42167969,40.2773438 C2.38574219,37.1595703 2.19492187,33.7871094 3.91289062,30.4148438 C5.121875,27.996875 7.03046875,26.2152344 8.23945312,25.3244141 C7.98496094,24.4972656 7.603125,23.0974609 7.41230469,22.0794922 C-1.81367188,28.7605469 -0.859179688,37.7958984 1.94042969,42.0589844 C4.04003906,45.240625 8.303125,47.2130859 13.0115234,47.2130859 C14.2839844,47.2130859 15.5564453,47.0857422 16.8291016,46.7677734 C24.9734375,45.1769531 31.1453125,40.3410156 34.6447266,33.1509766 Z M45.8431641,25.2609375 C41.0074219,19.5978516 33.88125,16.4800781 25.7369141,16.4800781 L24.7189453,16.4800781 C24.1462891,15.3347656 22.9373047,14.5710937 21.6011719,14.5710937 L21.4738281,14.5710937 C19.5015625,14.6347656 17.9746094,16.2890625 18.0380859,18.2617187 C18.1017578,20.1705078 19.6923828,21.6976562 21.6011719,21.6976562 L21.7283203,21.6976562 C23.128125,21.6339844 24.3371094,20.7431641 24.8460937,19.5341797 L25.9914062,19.5341797 C30.8271484,19.5341797 35.4082031,20.9339844 39.5441406,23.6701172 C42.7253906,25.7699219 45.0160156,28.5060547 46.2884766,31.8146484 C47.3701172,34.4871094 47.3064453,37.0958984 46.1611328,39.3230469 C44.3796875,42.6953125 41.3892578,44.540625 37.4443359,44.540625 C34.8992187,44.540625 32.4814453,43.7769531 31.2087891,43.2042969 C30.5089844,43.840625 29.2363281,44.8585937 28.3455078,45.4951172 C31.0816406,46.7675781 33.88125,47.4675781 36.5535156,47.4675781 C42.6617188,47.4675781 47.1792969,44.0951172 48.8972656,40.7228516 C50.7423828,37.0322266 50.6150391,30.6693359 45.8431641,25.2609375 Z M13.5205078,34.2324219 C13.5841797,36.1414062 15.1748047,37.6683594 17.0835937,37.6683594 L17.2109375,37.6683594 C19.1833984,37.6048828 20.7103516,35.9503906 20.6466797,33.9779297 C20.5832031,32.0689453 18.9923828,30.5419922 17.0835937,30.5419922 L16.9564453,30.5419922 C16.8291016,30.5419922 16.6380859,30.5419922 16.5111328,30.6054687 C13.9023437,26.2787109 12.8207031,21.5703125 13.2025391,16.4798828 C13.4568359,12.6621094 14.7294922,9.35332031 16.9564453,6.6171875 C18.8015625,4.26289062 22.3646484,3.11757812 24.7826172,3.05410156 C31.5269531,2.92675781 34.3900391,11.3257812 34.5810547,14.6982422 C35.4082031,14.8890625 36.8080078,15.3345703 37.7625,15.6527344 C36.9988281,5.34492187 30.6361328,0 24.528125,0 C18.8015625,0 13.5205078,4.1359375 11.4207031,10.2443359 C8.49394531,18.3888672 10.4027344,26.2152344 13.9658203,32.3873047 C13.6478516,32.8326172 13.4568359,33.5326172 13.5205078,34.2326172 L13.5205078,34.2324219 Z" id="Shape"></path>
                    </g>
                </g>
                <g id="Group-17" transform="translate(150.000000, 445.000000)">
                    <g id="Polygon">
                        <use fill="black" fill-opacity="1" filter="url(#filter-22)" xlink:href="#path-21"></use>
                        <use fill="#FFFFFF" fill-rule="evenodd" xlink:href="#path-21"></use>
                    </g>
                    <g id="react-router" transform="translate(35.000000, 46.000000)" fill-rule="nonzero">
                        <path d="M37.1714844,17.8152344 C36.2289063,18.1228516 35.2154297,18.2173828 34.2308594,18.3898438 C33.9628906,18.4367188 33.6800781,18.3949219 33.4095703,18.4324219 C31.309375,18.7238281 30.5158203,19.5650391 30.2191406,21.8013672 C30.0613281,22.9917969 29.7480469,24.1232422 29.0648437,25.1361328 C27.9105469,26.846875 25.6681641,27.6232422 23.7490234,26.9548828 C21.6947266,26.2394531 20.4501953,24.3669922 20.6162109,22.2410156 C20.7658203,20.3255859 22.2787109,18.6333984 24.4033203,18.1416016 C25.3982422,17.9113281 26.4304687,17.8212891 27.4511719,17.7283203 C29.3564453,17.5550781 30.1980469,16.7197266 30.5154297,14.8462891 C30.6980469,13.7683594 30.5353516,12.7513672 30.2962891,11.7345703 C29.9310547,10.1804687 28.7996094,9.45839844 26.8998047,9.32011719 C25.8630859,9.24453125 24.8083984,9.09414062 23.8164062,8.79609375 C21.728125,8.16816406 20.5123047,6.35527344 20.6085937,4.22851562 C20.6929687,2.36621094 22.2095703,0.552929688 24.03125,0.136523437 C26.1894531,-0.35703125 28.3378906,0.506054687 29.2558594,2.428125 C29.7375,3.43671875 30.0019531,4.57929688 30.190625,5.69082031 C30.5283203,7.68378906 31.3201172,8.45703125 33.3078125,8.67304688 C34.5935547,8.81289062 35.9035156,8.97226563 37.1294922,9.35585938 C38.9912109,9.93847656 40.1095703,11.6734375 40.1091797,13.6015625 C40.1089844,15.4876953 38.9546875,17.2333984 37.1714844,17.8152344 Z" id="Shape" fill="#62DAFB"></path>
                        <path d="M15.2484375,18.1214844 C12.7527344,18.121875 10.7152344,16.0849609 10.7148438,13.5896484 C10.7144531,11.0941406 12.7513672,9.05644531 15.2466797,9.05605469 C17.7421875,9.05566406 19.7796875,11.0925781 19.7800781,13.5878906 C19.7804688,16.0833984 17.7435547,18.1210938 15.2484375,18.1214844 Z M4.51757813,27.1875 C2.02402344,27.18125 -0.00625,25.1373047 6.93894473e-16,22.6396484 C0.00625,20.1460938 2.05,18.1158203 4.54765625,18.1222656 C7.04121094,18.1283203 9.07148438,20.1722656 9.06523438,22.6699219 C9.05898438,25.1634766 7.01523438,27.19375 4.51757813,27.1875 Z M45.5003906,27.1875 C43.0003906,27.2017578 40.9478516,25.1796875 40.9335938,22.6888672 C40.9193359,20.1890625 42.9414063,18.1363281 45.4322266,18.1222656 C47.9322266,18.1078125 49.9845703,20.1296875 49.9990234,22.6207031 C50.0132813,25.1205078 47.9912109,27.1732422 45.5003906,27.1875 Z" id="Shape" fill="#424242"></path>
                    </g>
                </g>
                <g id="Group-5" transform="translate(272.000000, 36.000000)">
                    <g id="Polygon-Copy">
                        <use fill="black" fill-opacity="1" filter="url(#filter-24)" xlink:href="#path-23"></use>
                        <use fill="#FFFFFF" fill-rule="evenodd" xlink:href="#path-23"></use>
                    </g>
                    <g id="chartjs-logo" transform="translate(35.000000, 32.000000)">
                        <path d="M49.6484615,28.68 C41.1953846,28.8453846 42.9553846,34.1976923 36.9984615,35.5515385 C30.9461538,36.9269231 29.9903846,20.7692308 23.9396154,20.7692308 C17.8884615,20.7692308 16.5488462,36.4638462 8.97115385,47.2396154 L8.75576923,47.545 L25,56.9230769 L49.6484615,42.6923077 L49.6484615,28.68 Z" id="Shape" fill="#36A2EB" fill-rule="nonzero"></path>
                        <path d="M49.6484615,28.1923077 C46.8176923,24.56 44.8984615,20.3846154 40.7692308,20.3846154 C33.4615385,20.3846154 35.3846154,32.3076923 27.3076923,32.3076923 C19.2307692,32.3076923 18.3819231,19.4823077 9.23076923,31.5384615 C6.31538462,35.38 3.96846154,39.6630769 2.125,43.7161538 L25,56.9230769 L49.6484615,42.6923077 L49.6484615,28.1923077 Z" id="Shape" fill="#FFCE56" fill-rule="nonzero"></path>
                        <path d="M0.351538462,33.1319231 C3.12461538,25.4511538 4.32192308,19.2307692 9.61538462,19.2307692 C17.6923077,19.2307692 19.6153846,41.9230769 26.5384615,39.6153846 C33.4615385,37.3076923 32.6923077,25 43.4615385,25 C45.5115385,25 47.6046154,26.255 49.6484615,28.2869231 L49.6484615,42.6923077 L25,56.9230769 L0.351538462,42.6923077 L0.351538462,33.1319231 Z" id="Shape" fill-opacity="0.8" fill="#FE6184" fill-rule="nonzero"></path>
                        <polygon id="Shape" stroke="#E7E9ED" stroke-width="8" points="25 0 49.6484615 14.2307692 49.6484615 42.6923077 25 56.9230769 0.351538462 42.6923077 0.351538462 14.2307692"></polygon>
                    </g>
                </g>
                <g id="Group-9" transform="translate(31.000000, 240.000000)">
                    <g id="Polygon-Copy">
                        <use fill="black" fill-opacity="1" filter="url(#filter-26)" xlink:href="#path-25"></use>
                        <use fill="#FFFFFF" fill-rule="evenodd" xlink:href="#path-25"></use>
                    </g>
                    <g id="Git_icon" transform="translate(35.000000, 35.000000)" fill="#F05133" fill-rule="nonzero">
                        <path d="M48.7688172,22.8 L27.1994624,1.23172043 C25.9575269,-0.0107526882 23.9430108,-0.0107526882 22.7,1.23172043 L18.2215054,5.71129032 L23.9026882,11.3924731 C25.2231183,10.9462366 26.7370968,11.2456989 27.7892473,12.2983871 C28.8478495,13.3575269 29.1446237,14.8844086 28.6870968,16.2096774 L34.1634409,21.6854839 C35.4887097,21.2284946 37.0166667,21.5241935 38.0747312,22.583871 C39.5532258,24.0623656 39.5532258,26.4580645 38.0747312,27.9376344 C36.5951613,29.4166667 34.1994624,29.4166667 32.7193548,27.9376344 C31.6075269,26.8247312 31.3322581,25.1903226 31.8962366,23.8204301 L26.7887097,18.7134409 L26.7887097,32.1526882 C27.1489247,32.3311828 27.4892473,32.5688172 27.7892473,32.8688172 C29.2677419,34.3473118 29.2677419,36.7430108 27.7892473,38.2231183 C26.3107527,39.7010753 23.9134409,39.7010753 22.4360215,38.2231183 C20.9575269,36.7424731 20.9575269,34.3467742 22.4360215,32.8688172 C22.8016129,32.5037634 23.2247312,32.2274194 23.6763441,32.0424731 L23.6763441,18.477957 C23.2247312,18.2930108 22.8026882,18.0193548 22.4360215,17.6516129 C21.316129,16.5322581 21.0467742,14.888172 21.6209677,13.5129032 L16.0204301,7.91129032 L1.23010753,22.7 C-0.0123655914,23.9435484 -0.0123655914,25.9580645 1.23010753,27.2005376 L22.8005376,48.7693548 C24.0424731,50.011828 26.0564516,50.011828 27.3,48.7693548 L48.7688172,27.3005376 C50.0112903,26.0580645 50.0112903,24.0424731 48.7688172,22.8 Z" id="Shape"></path>
                    </g>
                </g>
                <g id="Group-8" transform="translate(90.000000, 139.000000)">
                    <g id="Polygon">
                        <use fill="black" fill-opacity="1" filter="url(#filter-28)" xlink:href="#path-27"></use>
                        <use fill="#FFFFFF" fill-rule="evenodd" xlink:href="#path-27"></use>
                    </g>
                    <g id="sql-database" transform="translate(38.000000, 31.000000)" fill-rule="nonzero">
                        <path d="M0.866542369,8.34261662 L0.866542369,49.6790915 C0.866542369,53.9705939 10.4729143,57.4504999 22.3217651,57.4504999 L22.3217651,8.34261662 C22.3217651,8.34261662 0.866542369,8.34261662 0.866542369,8.34261662 Z" id="Shape" fill="#0072C6"></path>
                        <path d="M22.0275757,57.4493552 L22.3217651,57.4493552 C34.1706159,57.4493552 43.7769879,53.9717386 43.7769879,49.6790915 L43.7769879,8.34261662 L22.0275757,8.34261662 L22.0275757,57.4493552 Z" id="Shape" fill="#0072C6"></path>
                        <path d="M22.0275757,57.4493552 L22.3217651,57.4493552 C34.1706159,57.4493552 43.7769879,53.9717386 43.7769879,49.6790915 L43.7769879,8.34261662 L22.0275757,8.34261662 L22.0275757,57.4493552 Z" id="Shape" fill="#FFFFFF" opacity="0.15"></path>
                        <path d="M43.7769879,8.34261662 C43.7769879,12.6341191 34.1706159,16.1128803 22.3217651,16.1128803 C10.4729143,16.1128803 0.866542369,12.6341191 0.866542369,8.34261662 C0.866542369,4.05111419 10.4729143,0.572352952 22.3217651,0.572352952 C34.1706159,0.572352952 43.7769879,4.05111419 43.7769879,8.34261662" id="Shape" fill="#FFFFFF"></path>
                        <path d="M39.3904748,7.89503662 C39.3904748,10.7281837 31.7484182,13.0221744 22.3217651,13.0221744 C12.895112,13.0221744 5.25191068,10.7281837 5.25191068,7.89503662 C5.25191068,5.06303421 12.895112,2.76789887 22.3217651,2.76789887 C31.7484182,2.76789887 39.3904748,5.06303421 39.3904748,7.89503662" id="Shape" fill="#7FBA00"></path>
                        <path d="M35.8144136,11.0280967 C38.0488795,10.1615543 39.3916195,9.07637311 39.3916195,7.89732603 C39.3916195,5.06417892 31.7495629,2.76904358 22.3217651,2.76904358 C12.895112,2.76904358 5.25305539,5.06417892 5.25305539,7.89732603 C5.25305539,9.07637311 6.59579541,10.1615543 8.83026134,11.0280967 C11.9507296,9.81699783 16.8271768,9.03516369 22.3217651,9.03516369 C27.8174982,9.03516369 32.6916559,9.81699783 35.8144136,11.0280967" id="Shape" fill="#B8D432"></path>
                        <path d="M15.5073309,37.0358148 C15.5073309,38.3201748 15.0414356,39.3149242 14.109645,40.0200631 C13.1778544,40.7252019 11.8912049,41.0777713 10.248552,41.0777713 C8.85086604,41.0777713 7.68326602,40.825936 6.74460718,40.3222654 L6.74460718,37.3002419 C7.82749897,38.2194407 9.02028252,38.6796125 10.3229578,38.6796125 C10.9525461,38.6796125 11.4390461,38.5536948 11.7824579,38.3018595 C12.1258696,38.0500242 12.2975755,37.7169148 12.2975755,37.3002419 C12.2975755,36.8915819 12.1327379,36.5355783 11.8019179,36.233376 C11.4710979,35.9311736 10.7991555,35.5408289 9.78609077,35.0623418 C7.72104132,34.0939206 6.68851659,32.7706406 6.68851659,31.0970806 C6.68851659,29.8825476 7.13838601,28.9084029 8.03926956,28.1746464 C8.9390084,27.4420346 10.1352261,27.074584 11.6267779,27.074584 C12.9489132,27.074584 14.043252,27.2485793 14.9132285,27.5942805 L14.9132285,30.4171253 C14.0008979,29.787537 12.9615049,29.4727429 11.797339,29.4727429 C11.2123943,29.4727429 10.7499331,29.5963711 10.4099555,29.8447723 C10.0699778,30.0943182 9.90056136,30.4262829 9.90056136,30.8406664 C9.90056136,31.2687865 10.0367814,31.6202112 10.3115108,31.8937959 C10.5850955,32.1673806 11.1471461,32.5062135 11.9965179,32.90915 C13.2625626,33.5078312 14.1634461,34.1145253 14.7026026,34.7315218 C15.238325,35.349663 15.5073309,36.1177607 15.5073309,37.0358148 Z" id="Shape" fill="#FFFFFF"></path>
                        <path d="M30.0760029,33.9771606 C30.0760029,35.5694465 29.7131311,36.9522513 28.989677,38.1221407 C28.2650782,39.2931748 27.2462899,40.113929 25.9310228,40.5866925 L29.8585088,44.2222785 L25.8932475,44.2222785 L23.0887181,41.0777713 C21.8867769,41.0342725 20.8015957,40.7160443 19.8354639,40.1242313 C18.8693321,39.5335631 18.1229839,38.7219666 17.5975639,37.692876 C17.0721438,36.6637854 16.8088615,35.5156454 16.8088615,34.2507453 C16.8088615,32.8473359 17.0938933,31.5961723 17.6628121,30.4972547 C18.2328756,29.398337 19.0330251,28.5535441 20.0655498,27.9617311 C21.0980745,27.3710629 22.2805557,27.074584 23.6164275,27.074584 C24.8618675,27.074584 25.9779558,27.3607605 26.9635476,27.9342582 C27.9479946,28.5066111 28.7126582,29.3216417 29.2575382,30.37935 C29.8035629,31.4370582 30.0760029,32.63671 30.0760029,33.9771606 Z M26.8662476,34.1477218 C26.8662476,32.7752194 26.5674793,31.6911829 25.9687981,30.8944676 C25.3701169,30.0977523 24.5527969,29.6993947 23.513404,29.6993947 C22.4556957,29.6993947 21.609758,30.098897 20.9733016,30.8979017 C20.3379898,31.6980512 20.0197615,32.761483 20.0197615,34.0893418 C20.0197615,35.4114771 20.3311215,36.466896 20.9538416,37.256743 C21.5777063,38.0465901 22.4041839,38.4415136 23.4367087,38.4415136 C24.4886934,38.4415136 25.3220393,38.0591819 25.9390358,37.2945183 C26.557177,36.5309995 26.8662476,35.4813042 26.8662476,34.1477218 Z" id="Shape" fill="#FFFFFF"></path>
                        <polygon id="Shape" fill="#FFFFFF" points="40.3772113 40.8419619 32.3139029 40.8419619 32.3139029 27.3023805 35.3633995 27.3023805 35.3633995 38.3682525 40.3772113 38.3682525"></polygon>
                    </g>
                </g>
                <g id="Group-4" transform="translate(150.000000, 36.000000)">
                    <g id="Polygon">
                        <use fill="black" fill-opacity="1" filter="url(#filter-30)" xlink:href="#path-29"></use>
                        <use fill="#FFFFFF" fill-rule="evenodd" xlink:href="#path-29"></use>
                    </g>
                    <g id="webstrom" transform="translate(35.000000, 35.000000)" fill-rule="nonzero">
                        <polygon id="Shape" fill="url(#linearGradient-31)" points="6.71875 45.15625 0 5.234375 12.5 0.078125 20.390625 4.765625 27.734375 0.859375 42.890625 6.71875 34.375 50"></polygon>
                        <polygon id="Shape" fill="url(#linearGradient-32)" points="50 16.953125 43.515625 1.015625 31.875 0 13.75 17.34375 18.59375 39.765625 27.734375 46.09375 50 32.890625 44.53125 22.65625"></polygon>
                        <polygon id="Shape" fill="url(#linearGradient-33)" points="40 14.53125 44.53125 22.65625 50 16.953125 46.015625 7.03125 40 14.53125"></polygon>
                        <g id="Group" transform="translate(9.375000, 9.375000)">
                            <polygon id="Shape" fill="#000000" points="0 0 31.25 0 31.25 31.25 0 31.25"></polygon>
                            <path d="M2.96875,25.390625 L14.6875,25.390625 L14.6875,27.34375 L2.96875,27.34375 L2.96875,25.390625 Z M18.28125,15.15625 L19.921875,13.125 C21.09375,14.0625 22.265625,14.6875 23.75,14.6875 C24.921875,14.6875 25.625,14.21875 25.625,13.4375 C25.625,12.734375 25.15625,12.34375 23.046875,11.796875 C20.46875,11.09375 18.828125,10.390625 18.828125,7.8125 L18.828125,7.734375 C18.828125,5.390625 20.703125,3.828125 23.28125,3.828125 C25.0095294,3.82085568 26.6893228,4.39914523 28.046875,5.46875 L26.5625,7.65625 C25.6192998,6.91916495 24.4757986,6.48354547 23.28125,6.40625 C22.265625,6.40625 21.640625,6.875 21.640625,7.578125 C21.640625,8.4375 22.1875,8.75 24.375,9.296875 C26.953125,10 28.4375,10.9375 28.4375,13.203125 C28.4375,15.78125 26.484375,17.265625 23.75,17.265625 C21.7428986,17.1918417 19.8180275,16.4493915 18.28125,15.15625 Z M15.78125,4.0625 L13.828125,11.5625 L11.640625,4.0625 L9.453125,4.0625 L7.265625,11.5625 L5.3125,4.0625 L2.265625,4.0625 L6.015625,17.03125 L8.4375,17.03125 L10.546875,9.53125 L12.65625,17.03125 L15.078125,17.03125 L18.828125,4.0625 L15.78125,4.0625 Z" id="Shape" fill="#FFFFFF"></path>
                        </g>
                    </g>
                </g>
                <g id="T_Fade" fill="url(#linearGradient-34)">
                    <rect id="Rectangle-3" x="433" y="0" width="120" height="599"></rect>
                    <rect id="Rectangle-3" transform="translate(61.000000, 299.500000) scale(-1, 1) translate(-61.000000, -299.500000) " x="1" y="0" width="120" height="599"></rect>
                    <rect id="Rectangle-3" transform="translate(276.750000, 55.500000) scale(1, -1) rotate(90.000000) translate(-276.750000, -55.500000) " x="221.75" y="-220.75" width="110" height="552.5"></rect>
                    <rect id="Rectangle-3" transform="translate(278.500000, 537.000000) rotate(90.000000) translate(-278.500000, -537.000000) " x="218.5" y="266.5" width="120" height="541"></rect>
                </g>
            </g>
        </g>
    </g>
</svg>