<svg width="185px" height="164px" viewBox="0 0 185 164" version="1.1" xmlns="http://www.w3.org/2000/svg">
    <g id="Welcome" stroke="none" stroke-width="1" fill="none" fill-rule="evenodd">
        <g id="Desktop" transform="translate(-179.000000, -799.000000)" fill-rule="nonzero">
            <g id="Snow-Flake" transform="translate(179.000000, 799.000000)">
                <polygon id="Shape" fill="#3791F9" points="127.705613 82.5001809 146 52.1893237 109.410502 52.1893237 93 25 76.5894977 52.1893237 40 52.1893237 58.2943868 82.5001809 40 112.811038 74.5894089 112.811038 93 140 111.410591 112.811038 146 112.811038"></polygon>
                <path d="M78.1002897,104.346178 C63.843559,107.990758 55.8101291,107.990758 54,104.346178 C52.1898709,100.701598 56.5847248,93.3755565 67.1845618,82.3680539 L54,60.3895683 L80.3687638,60.3895683 L92,41 L103.631236,60.3895683 L130,60.3895683 L116.815438,82.3680539 L130,104.346178 L105.89971,104.346178 L92,125 L78.1002897,104.346178 Z" id="Shape" fill="#2EBBFF"></path>
                <polygon id="Shape" fill="#B6DFFB" points="185 77.9117719 172.791807 77.9117719 178.766006 68.3208768 171.708184 63.9103462 162.986807 77.9117719 98.6790723 77.9117719 130.746582 23.2325582 147.215918 22.7920842 146.994424 14.4628918 135.713037 14.764383 141.896445 4.22051505 134.723721 0 128.540312 10.543868 123.310449 0.526614304 115.938994 4.38772866 123.574219 19.0116812 92.5 71.9974047 61.4257812 19.0116812 69.0610059 4.38772866 61.6895508 0.526614304 56.4596875 10.543868 50.275918 0 43.1035547 4.22051505 49.2869629 14.764383 38.0059375 14.4628918 37.784082 22.7920842 54.253418 23.2325582 86.3209277 77.9117719 22.012832 77.9117719 13.2918164 63.9103462 6.2347168 68.3208768 12.2081934 77.9117719 0 77.9117719 0 86.2438598 12.2081934 86.2438598 6.2347168 95.834755 13.2918164 100.245647 22.012832 86.2438598 84.1450098 86.2438598 52.1681934 140.768528 35.6984961 141.209002 35.9203516 149.537832 47.2020996 149.235979 41.0186914 159.780209 48.1910547 164 54.3744629 153.456494 59.6046875 163.474471 66.9754199 159.612633 59.3405566 144.988681 92.5 88.4480393 125.659082 144.988681 118.024219 159.612633 125.395674 163.474471 130.625176 153.456856 136.808945 164 143.981309 159.780209 137.7979 149.235979 149.079648 149.537832 149.300781 141.209002 132.831807 140.768528 100.85499 86.2438598 162.987168 86.2438598 171.708184 100.245647 178.766006 95.834755 172.791807 86.2438598 185 86.2438598"></polygon>
            </g>
        </g>
    </g>
</svg>