<svg width="50px" height="50px" viewBox="0 0 50 50" version="1.1" xmlns="http://www.w3.org/2000/svg" xmlns:xlink="http://www.w3.org/1999/xlink">
    <g id="Welcome" stroke="none" stroke-width="1" fill="none" fill-rule="evenodd">
        <g id="Tablet-Portrait" transform="translate(-234.000000, -87.000000)">
            <g id="Group" transform="translate(234.000000, 87.000000)">
                <rect id="Rectangle-10" fill="#FFFFFF" x="0" y="0" width="50" height="50" rx="4"></rect>
                <g id="stork" transform="translate(12.000000, 9.000000)" fill="#006DF0" fill-rule="nonzero">
                    <path d="M23.4724948,7.5039375 L25.246008,7.941125 L23.2365926,6.7523125 C23.7208196,6.788625 24.7846613,6.7798125 25.4618186,6.1119375 C26.3611246,5.22525 26.0820602,3.6658125 26.0820602,3.6658125 C26.0820602,3.6658125 24.531583,3.36 23.6013474,4.27725 C22.8372321,5.0308125 22.9099929,6.1963125 22.960317,6.58875 L17.3380229,3.262125 C17.1632195,1.4373125 15.2739735,0 12.9672402,0 C10.6734365,0 8.79211306,1.42125 8.59943634,3.2315 C8.58897856,3.2973125 8.59284477,3.8124375 8.61198568,3.9465625 C8.83343715,5.922 10.2895408,7.6725625 11.7021654,9.3698125 C12.1806248,9.944625 12.6640912,10.525875 13.0970434,11.11175 C11.5048619,10.8076875 9.59013695,10.8348125 7.59853147,11.2648125 C2.86679679,12.2864375 -0.507137423,15.195 0.0627800421,17.7611875 C0.554802871,19.9775625 3.82796208,21.2135625 7.75958132,20.85125 L7.75958132,24.5484375 C7.49091138,24.7859375 7.32105163,25.1296875 7.32105163,25.5134375 C7.32105163,25.8971875 7.49103814,26.2409375 7.75958132,26.4784375 L7.75958132,32 L13.0218742,32 L9.51370006,30.27025 L9.51370006,26.4785 C9.78237001,26.241 9.95222975,25.89725 9.95222975,25.5135 C9.95222975,25.12975 9.78224325,24.786 9.51370006,24.5485 L9.51370006,20.5890625 C9.56307347,20.5789375 9.61257365,20.5688125 9.66201044,20.5581875 C13.9008983,19.643 17.0493881,17.2134375 17.2498606,14.872375 C17.2586071,14.81175 17.2647551,14.7501875 17.2647551,14.6870625 C17.2647551,11.96325 15.3899598,9.711 13.7359189,7.7236875 C13.5533831,7.5044375 13.3724951,7.2869375 13.1959804,7.0714375 C14.4835553,7.0180625 15.6236437,6.516125 16.3828154,5.756125 L22.7420346,7.323875 C21.8101511,8.870625 19.1065924,13.5803125 19.1065924,16.157375 C19.1065924,18.3068125 20.873514,20.04925 23.0532962,20.04925 C25.233015,20.04925 27,18.3068125 27,16.157375 C27.0000634,13.6735 24.4884209,9.2085 23.4724948,7.5039375 Z M13.8442996,4.2653125 C13.4809391,4.2653125 13.1865367,3.975 13.1865367,3.6166875 C13.1865367,3.258375 13.4809391,2.9680625 13.8442996,2.9680625 C14.2075966,2.9680625 14.5020624,3.258375 14.5020624,3.6166875 C14.5020624,3.975 14.2074698,4.2653125 13.8442996,4.2653125 Z" id="Shape"></path>
                </g>
            </g>
        </g>
    </g>
</svg>