<svg width="50px" height="50px" viewBox="0 0 50 50" version="1.1" xmlns="http://www.w3.org/2000/svg" xmlns:xlink="http://www.w3.org/1999/xlink">
    <g id="Welcome" stroke="none" stroke-width="1" fill="none" fill-rule="evenodd">
        <g id="Tablet-Portrait" transform="translate(-207.000000, -160.000000)" fill="#FFFFFF">
            <g id="Group" transform="translate(207.000000, 160.000000)">
                <path d="M4,0 L46,0 C48.209139,-4.05812251e-16 50,1.790861 50,4 L50,46 C50,48.209139 48.209139,50 46,50 L4,50 C1.790861,50 2.705415e-16,48.209139 0,46 L0,4 C-2.705415e-16,1.790861 1.790861,4.05812251e-16 4,0 Z M15.2133229,8.5863677 C13.8569955,9.26350198 13.000009,10.6491942 13.000009,12.1651542 L13,38.0332426 C13,39.5520218 13.8601414,40.9397836 15.2203143,41.6155204 C19.5845602,43.7836916 22.460831,44.8677773 23.8491268,44.8677773 C25.2511136,44.8677773 28.4989953,43.7622042 33.5927719,41.5510579 C35.0543645,40.9165985 36.000017,39.4751969 36.000017,37.8818383 L36.0000085,12.1651593 C36.0000085,10.649192 35.1430178,9.26349312 33.7866794,8.58636461 C28.9975898,6.19545487 25.9020314,5 24.5000042,5 C23.0979764,5 20.002416,6.1954559 15.2133229,8.5863677 Z" id="Combined-Shape"></path>
                <path d="M15.0000017,29.2189947 C15.0000019,30.6490668 15.0000021,32.794175 15.0000025,35.6543192 C15.0000025,37.1646145 15.8506621,38.5461409 17.1992543,39.2260607 C20.60028,40.9407317 22.8546354,41.7980672 23.9623203,41.7980672 C25.0837398,41.7980672 27.6348092,40.9193391 31.6155287,39.1618829 C33.064897,38.5219982 34.0000022,37.0869727 34.0000022,35.5026366 C34.0000017,29.1695583 34.0000012,24.4197497 34.0000009,21.2532105 C34.0000007,18.9764722 15.0000012,24.2869965 15.0000017,29.2189947 Z" id="Path"></path>
            </g>
        </g>
    </g>
</svg>